<mxfile host="Electron" agent="Mozilla/5.0 (Windows NT 10.0; Win64; x64) AppleWebKit/537.36 (KHTML, like Gecko) draw.io/25.0.2 Chrome/128.0.6613.186 Electron/32.2.5 Safari/537.36" version="25.0.2">
  <diagram name="Page-1" id="tufnpNp5UwdKSk891DFs">
    <mxGraphModel dx="1366" dy="1896" grid="1" gridSize="1" guides="1" tooltips="1" connect="1" arrows="1" fold="1" page="1" pageScale="1" pageWidth="850" pageHeight="1100" math="0" shadow="0">
      <root>
        <mxCell id="0" />
        <mxCell id="1" parent="0" />
        <mxCell id="_x0-wylek2HW_SOhxotY-97" value="" style="endArrow=classic;html=1;rounded=0;exitX=1;exitY=0.5;exitDx=0;exitDy=0;" edge="1" parent="1" source="_x0-wylek2HW_SOhxotY-94">
          <mxGeometry width="50" height="50" relative="1" as="geometry">
            <mxPoint x="721" y="943" as="sourcePoint" />
            <mxPoint x="1391" y="752" as="targetPoint" />
          </mxGeometry>
        </mxCell>
        <mxCell id="_x0-wylek2HW_SOhxotY-98" value="" style="endArrow=classic;html=1;rounded=0;exitX=1;exitY=0.5;exitDx=0;exitDy=0;" edge="1" parent="1" source="_x0-wylek2HW_SOhxotY-223">
          <mxGeometry width="50" height="50" relative="1" as="geometry">
            <mxPoint x="798" y="945" as="sourcePoint" />
            <mxPoint x="1391" y="784" as="targetPoint" />
            <Array as="points">
              <mxPoint x="849" y="929" />
              <mxPoint x="849" y="784" />
            </Array>
          </mxGeometry>
        </mxCell>
        <mxCell id="zBTAGkf1-Lc7cg8zBFCE-19" value="&lt;b&gt;&lt;font style=&quot;font-size: 14px;&quot;&gt;Start&lt;/font&gt;&lt;/b&gt;" style="ellipse;whiteSpace=wrap;html=1;fillColor=#d5e8d4;gradientColor=#97d077;strokeColor=#82b366;movable=1;resizable=1;rotatable=1;deletable=1;editable=1;locked=0;connectable=1;container=0;" parent="1" vertex="1">
          <mxGeometry x="1006.5" y="-56" width="110" height="48.5" as="geometry" />
        </mxCell>
        <mxCell id="ABzlD6klKWdHqtB6DQh_-1" style="edgeStyle=orthogonalEdgeStyle;rounded=0;orthogonalLoop=1;jettySize=auto;html=1;entryX=0.5;entryY=0;entryDx=0;entryDy=0;" edge="1" parent="1" source="zBTAGkf1-Lc7cg8zBFCE-21" target="_x0-wylek2HW_SOhxotY-294">
          <mxGeometry relative="1" as="geometry" />
        </mxCell>
        <mxCell id="zBTAGkf1-Lc7cg8zBFCE-21" value="&lt;ul&gt;&lt;li&gt;&lt;b&gt;&lt;span class=&quot;hljs-built_in&quot;&gt;Initialize&lt;/span&gt;&amp;nbsp;&lt;span class=&quot;hljs-variable&quot;&gt;timer&lt;/span&gt;&amp;nbsp;&lt;span class=&quot;hljs-variable&quot;&gt;for&lt;/span&gt;&amp;nbsp;&lt;span class=&quot;hljs-variable&quot;&gt;acoustic&lt;/span&gt;&amp;nbsp;&lt;span class=&quot;hljs-variable&quot;&gt;signals&lt;/span&gt;&lt;/b&gt;&lt;/li&gt;&lt;li&gt;&lt;b&gt;&lt;span class=&quot;hljs-built_in&quot;&gt;Initialize&lt;/span&gt;&amp;nbsp;&lt;span class=&quot;hljs-variable&quot;&gt;micro&lt;/span&gt;&lt;span class=&quot;hljs-operator&quot;&gt;-&lt;/span&gt;&lt;span class=&quot;hljs-variable&quot;&gt;interrupts&lt;/span&gt;&amp;nbsp;&lt;span class=&quot;hljs-variable&quot;&gt;for&lt;/span&gt;&amp;nbsp;&lt;span class=&quot;hljs-variable&quot;&gt;door&lt;/span&gt;&amp;nbsp;&lt;span class=&quot;hljs-variable&quot;&gt;sensors&lt;/span&gt;&lt;/b&gt;&lt;/li&gt;&lt;li&gt;&lt;b&gt;&lt;span class=&quot;hljs-built_in&quot;&gt;Initialize&lt;/span&gt;&amp;nbsp;&lt;span class=&quot;hljs-variable&quot;&gt;sensors&lt;/span&gt;&amp;nbsp;&lt;span class=&quot;hljs-variable&quot;&gt;for&lt;/span&gt;&amp;nbsp;&lt;span class=&quot;hljs-variable&quot;&gt;seatbelt&lt;/span&gt;&amp;nbsp;&lt;span class=&quot;hljs-variable&quot;&gt;and&lt;/span&gt;&amp;nbsp;&lt;span class=&quot;hljs-variable&quot;&gt;light&lt;/span&gt;&amp;nbsp;&lt;span class=&quot;hljs-variable&quot;&gt;status&lt;/span&gt;&lt;/b&gt;&lt;/li&gt;&lt;li&gt;&lt;b&gt;&lt;span class=&quot;hljs-built_in&quot;&gt;Initialize&lt;/span&gt;&amp;nbsp;&lt;span class=&quot;hljs-variable&quot;&gt;buzzer&lt;/span&gt;&amp;nbsp;&lt;span class=&quot;hljs-variable&quot;&gt;for&lt;/span&gt;&amp;nbsp;&lt;span class=&quot;hljs-variable&quot;&gt;sound&lt;/span&gt;&amp;nbsp;&lt;span class=&quot;hljs-variable&quot;&gt;output&lt;/span&gt;&lt;/b&gt;&lt;/li&gt;&lt;li&gt;&lt;b&gt;&lt;span class=&quot;hljs-built_in&quot;&gt;Initialize&lt;/span&gt;&amp;nbsp;&lt;span class=&quot;hljs-variable&quot;&gt;lamps&lt;/span&gt;&amp;nbsp;&lt;span class=&quot;hljs-variable&quot;&gt;for&lt;/span&gt;&amp;nbsp;&lt;span class=&quot;hljs-variable&quot;&gt;warnings&lt;/span&gt;&lt;/b&gt;&lt;/li&gt;&lt;/ul&gt;" style="rounded=0;whiteSpace=wrap;html=1;align=left;fillColor=#f5f5f5;strokeColor=#666666;fontColor=#333333;movable=1;resizable=1;rotatable=1;deletable=1;editable=1;locked=0;connectable=1;container=0;" parent="1" vertex="1">
          <mxGeometry x="910" y="37" width="303" height="80" as="geometry" />
        </mxCell>
        <mxCell id="zBTAGkf1-Lc7cg8zBFCE-25" value="&lt;b&gt;Buzzer ON&lt;/b&gt;" style="rounded=0;whiteSpace=wrap;html=1;fillColor=#d0cee2;strokeColor=#56517e;movable=1;resizable=1;rotatable=1;deletable=1;editable=1;locked=0;connectable=1;container=0;" parent="1" vertex="1">
          <mxGeometry x="201.04" y="1000.81" width="110" height="20" as="geometry" />
        </mxCell>
        <mxCell id="zBTAGkf1-Lc7cg8zBFCE-27" value="&lt;b&gt;Delay 0.5&lt;/b&gt;" style="rounded=0;whiteSpace=wrap;html=1;fillColor=#fff2cc;gradientColor=#ffd966;strokeColor=#d6b656;movable=1;resizable=1;rotatable=1;deletable=1;editable=1;locked=0;connectable=1;container=0;" parent="1" vertex="1">
          <mxGeometry x="201.04" y="1033.81" width="110" height="20" as="geometry" />
        </mxCell>
        <mxCell id="zBTAGkf1-Lc7cg8zBFCE-28" value="&lt;b&gt;Buzzer OFF&lt;/b&gt;" style="rounded=0;whiteSpace=wrap;html=1;fillColor=#d0cee2;strokeColor=#56517e;movable=1;resizable=1;rotatable=1;deletable=1;editable=1;locked=0;connectable=1;container=0;" parent="1" vertex="1">
          <mxGeometry x="201.04" y="1070.81" width="110" height="20" as="geometry" />
        </mxCell>
        <mxCell id="_x0-wylek2HW_SOhxotY-114" style="edgeStyle=orthogonalEdgeStyle;rounded=0;orthogonalLoop=1;jettySize=auto;html=1;exitX=0.5;exitY=1;exitDx=0;exitDy=0;entryX=1;entryY=0.5;entryDx=0;entryDy=0;" edge="1" parent="1" source="zBTAGkf1-Lc7cg8zBFCE-29" target="_x0-wylek2HW_SOhxotY-102">
          <mxGeometry relative="1" as="geometry" />
        </mxCell>
        <mxCell id="zBTAGkf1-Lc7cg8zBFCE-29" value="&lt;b&gt;Delay 0.5&lt;/b&gt;" style="rounded=0;whiteSpace=wrap;html=1;fillColor=#fff2cc;gradientColor=#ffd966;strokeColor=#d6b656;movable=1;resizable=1;rotatable=1;deletable=1;editable=1;locked=0;connectable=1;container=0;" parent="1" vertex="1">
          <mxGeometry x="201.04" y="1110.81" width="110" height="20" as="geometry" />
        </mxCell>
        <mxCell id="zBTAGkf1-Lc7cg8zBFCE-34" value="" style="triangle;whiteSpace=wrap;html=1;rotation=-90;fillColor=#f5f5f5;gradientColor=#b3b3b3;strokeColor=#666666;movable=1;resizable=1;rotatable=1;deletable=1;editable=1;locked=0;connectable=1;container=0;" parent="1" vertex="1">
          <mxGeometry x="341.03999999999996" y="867" width="65" height="123.81" as="geometry" />
        </mxCell>
        <mxCell id="zBTAGkf1-Lc7cg8zBFCE-35" value="&lt;b&gt;time &amp;lt; 4&lt;/b&gt;" style="text;html=1;align=center;verticalAlign=middle;whiteSpace=wrap;rounded=0;movable=1;resizable=1;rotatable=1;deletable=1;editable=1;locked=0;connectable=1;container=0;" parent="1" vertex="1">
          <mxGeometry x="344.14" y="925.9000000000001" width="60" height="30" as="geometry" />
        </mxCell>
        <mxCell id="zBTAGkf1-Lc7cg8zBFCE-46" value="False" style="rounded=0;whiteSpace=wrap;html=1;shadow=0;fillStyle=solid;fillColor=#a20025;fontColor=#ffffff;strokeColor=#6F0000;movable=1;resizable=1;rotatable=1;deletable=1;editable=1;locked=0;connectable=1;container=0;" parent="1" vertex="1">
          <mxGeometry x="441.03999999999996" y="918.9300000000001" width="40" height="19.96" as="geometry" />
        </mxCell>
        <mxCell id="zBTAGkf1-Lc7cg8zBFCE-47" value="True" style="rounded=0;whiteSpace=wrap;html=1;shadow=0;fillStyle=solid;fillColor=#60a917;fontColor=#ffffff;strokeColor=#2D7600;movable=1;resizable=1;rotatable=1;deletable=1;editable=1;locked=0;connectable=1;container=0;" parent="1" vertex="1">
          <mxGeometry x="271.03999999999996" y="918.9300000000001" width="40" height="19.96" as="geometry" />
        </mxCell>
        <mxCell id="zBTAGkf1-Lc7cg8zBFCE-48" value="" style="endArrow=none;html=1;rounded=0;exitX=0.5;exitY=0;exitDx=0;exitDy=0;entryX=1;entryY=0.5;entryDx=0;entryDy=0;movable=1;resizable=1;rotatable=1;deletable=1;editable=1;locked=0;connectable=1;" parent="1" source="zBTAGkf1-Lc7cg8zBFCE-34" target="zBTAGkf1-Lc7cg8zBFCE-47" edge="1">
          <mxGeometry width="50" height="50" relative="1" as="geometry">
            <mxPoint x="471.03999999999996" y="980.81" as="sourcePoint" />
            <mxPoint x="521.0399999999998" y="930.81" as="targetPoint" />
          </mxGeometry>
        </mxCell>
        <mxCell id="zBTAGkf1-Lc7cg8zBFCE-49" value="" style="endArrow=classic;html=1;rounded=0;exitX=0;exitY=0.5;exitDx=0;exitDy=0;entryX=0.5;entryY=0;entryDx=0;entryDy=0;movable=1;resizable=1;rotatable=1;deletable=1;editable=1;locked=0;connectable=1;" parent="1" source="zBTAGkf1-Lc7cg8zBFCE-47" target="zBTAGkf1-Lc7cg8zBFCE-25" edge="1">
          <mxGeometry width="50" height="50" relative="1" as="geometry">
            <mxPoint x="351.03999999999996" y="950.81" as="sourcePoint" />
            <mxPoint x="401.03999999999996" y="900.81" as="targetPoint" />
            <Array as="points">
              <mxPoint x="256.03999999999996" y="928.81" />
            </Array>
          </mxGeometry>
        </mxCell>
        <mxCell id="zBTAGkf1-Lc7cg8zBFCE-50" value="" style="endArrow=none;html=1;rounded=0;exitX=0.5;exitY=1;exitDx=0;exitDy=0;entryX=0;entryY=0.5;entryDx=0;entryDy=0;movable=1;resizable=1;rotatable=1;deletable=1;editable=1;locked=0;connectable=1;" parent="1" source="zBTAGkf1-Lc7cg8zBFCE-34" target="zBTAGkf1-Lc7cg8zBFCE-46" edge="1">
          <mxGeometry width="50" height="50" relative="1" as="geometry">
            <mxPoint x="431.03999999999996" y="980.81" as="sourcePoint" />
            <mxPoint x="481.03999999999996" y="930.81" as="targetPoint" />
          </mxGeometry>
        </mxCell>
        <mxCell id="zBTAGkf1-Lc7cg8zBFCE-52" value="" style="endArrow=classic;html=1;rounded=0;exitX=0.5;exitY=1;exitDx=0;exitDy=0;entryX=0.5;entryY=0;entryDx=0;entryDy=0;movable=1;resizable=1;rotatable=1;deletable=1;editable=1;locked=0;connectable=1;" parent="1" source="zBTAGkf1-Lc7cg8zBFCE-25" target="zBTAGkf1-Lc7cg8zBFCE-27" edge="1">
          <mxGeometry width="50" height="50" relative="1" as="geometry">
            <mxPoint x="281.03999999999996" y="1050.81" as="sourcePoint" />
            <mxPoint x="331.03999999999996" y="1000.81" as="targetPoint" />
          </mxGeometry>
        </mxCell>
        <mxCell id="zBTAGkf1-Lc7cg8zBFCE-53" value="" style="endArrow=classic;html=1;rounded=0;exitX=0.5;exitY=1;exitDx=0;exitDy=0;entryX=0.5;entryY=0;entryDx=0;entryDy=0;movable=1;resizable=1;rotatable=1;deletable=1;editable=1;locked=0;connectable=1;" parent="1" source="zBTAGkf1-Lc7cg8zBFCE-27" target="zBTAGkf1-Lc7cg8zBFCE-28" edge="1">
          <mxGeometry width="50" height="50" relative="1" as="geometry">
            <mxPoint x="271.03999999999996" y="1060.81" as="sourcePoint" />
            <mxPoint x="321.03999999999996" y="1010.81" as="targetPoint" />
          </mxGeometry>
        </mxCell>
        <mxCell id="zBTAGkf1-Lc7cg8zBFCE-54" value="" style="endArrow=classic;html=1;rounded=0;exitX=0.5;exitY=1;exitDx=0;exitDy=0;entryX=0.5;entryY=0;entryDx=0;entryDy=0;movable=1;resizable=1;rotatable=1;deletable=1;editable=1;locked=0;connectable=1;" parent="1" source="zBTAGkf1-Lc7cg8zBFCE-28" target="zBTAGkf1-Lc7cg8zBFCE-29" edge="1">
          <mxGeometry width="50" height="50" relative="1" as="geometry">
            <mxPoint x="271.03999999999996" y="1090.81" as="sourcePoint" />
            <mxPoint x="321.03999999999996" y="1040.81" as="targetPoint" />
          </mxGeometry>
        </mxCell>
        <mxCell id="zBTAGkf1-Lc7cg8zBFCE-78" value="&lt;b&gt;Buzzer ON&lt;/b&gt;" style="rounded=0;whiteSpace=wrap;html=1;fillColor=#d0cee2;strokeColor=#56517e;movable=1;resizable=1;rotatable=1;deletable=1;editable=1;locked=0;connectable=1;container=0;" parent="1" vertex="1">
          <mxGeometry x="885" y="1643" width="110" height="20" as="geometry" />
        </mxCell>
        <mxCell id="zBTAGkf1-Lc7cg8zBFCE-79" value="&lt;b&gt;Delay 0.5&lt;/b&gt;" style="rounded=0;whiteSpace=wrap;html=1;fillColor=#fff2cc;gradientColor=#ffd966;strokeColor=#d6b656;movable=1;resizable=1;rotatable=1;deletable=1;editable=1;locked=0;connectable=1;container=0;" parent="1" vertex="1">
          <mxGeometry x="885" y="1676" width="110" height="20" as="geometry" />
        </mxCell>
        <mxCell id="zBTAGkf1-Lc7cg8zBFCE-80" value="&lt;b&gt;Buzzer OFF&lt;/b&gt;" style="rounded=0;whiteSpace=wrap;html=1;fillColor=#d0cee2;strokeColor=#56517e;movable=1;resizable=1;rotatable=1;deletable=1;editable=1;locked=0;connectable=1;container=0;" parent="1" vertex="1">
          <mxGeometry x="885" y="1754.19" width="110" height="20" as="geometry" />
        </mxCell>
        <mxCell id="_x0-wylek2HW_SOhxotY-246" style="edgeStyle=orthogonalEdgeStyle;rounded=0;orthogonalLoop=1;jettySize=auto;html=1;" edge="1" parent="1" source="zBTAGkf1-Lc7cg8zBFCE-81">
          <mxGeometry relative="1" as="geometry">
            <mxPoint x="1237.0000000000005" y="1006" as="targetPoint" />
            <Array as="points">
              <mxPoint x="940" y="1842" />
              <mxPoint x="616" y="1842" />
              <mxPoint x="616" y="1006" />
            </Array>
          </mxGeometry>
        </mxCell>
        <mxCell id="zBTAGkf1-Lc7cg8zBFCE-81" value="&lt;b&gt;Delay 0.5&lt;/b&gt;" style="rounded=0;whiteSpace=wrap;html=1;fillColor=#fff2cc;gradientColor=#ffd966;strokeColor=#d6b656;movable=1;resizable=1;rotatable=1;deletable=1;editable=1;locked=0;connectable=1;container=0;" parent="1" vertex="1">
          <mxGeometry x="885" y="1788.0900000000001" width="110" height="20" as="geometry" />
        </mxCell>
        <mxCell id="zBTAGkf1-Lc7cg8zBFCE-89" value="" style="endArrow=classic;html=1;rounded=0;exitX=0.5;exitY=1;exitDx=0;exitDy=0;entryX=0.5;entryY=0;entryDx=0;entryDy=0;movable=1;resizable=1;rotatable=1;deletable=1;editable=1;locked=0;connectable=1;" parent="1" source="zBTAGkf1-Lc7cg8zBFCE-78" target="zBTAGkf1-Lc7cg8zBFCE-79" edge="1">
          <mxGeometry width="50" height="50" relative="1" as="geometry">
            <mxPoint x="965" y="1693" as="sourcePoint" />
            <mxPoint x="1015" y="1643" as="targetPoint" />
          </mxGeometry>
        </mxCell>
        <mxCell id="zBTAGkf1-Lc7cg8zBFCE-90" value="" style="endArrow=classic;html=1;rounded=0;exitX=0.5;exitY=1;exitDx=0;exitDy=0;entryX=0.5;entryY=0;entryDx=0;entryDy=0;movable=1;resizable=1;rotatable=1;deletable=1;editable=1;locked=0;connectable=1;" parent="1" source="_x0-wylek2HW_SOhxotY-244" target="zBTAGkf1-Lc7cg8zBFCE-80" edge="1">
          <mxGeometry width="50" height="50" relative="1" as="geometry">
            <mxPoint x="955" y="1703" as="sourcePoint" />
            <mxPoint x="1005" y="1653" as="targetPoint" />
          </mxGeometry>
        </mxCell>
        <mxCell id="zBTAGkf1-Lc7cg8zBFCE-91" value="" style="endArrow=classic;html=1;rounded=0;exitX=0.5;exitY=1;exitDx=0;exitDy=0;entryX=0.5;entryY=0;entryDx=0;entryDy=0;movable=1;resizable=1;rotatable=1;deletable=1;editable=1;locked=0;connectable=1;" parent="1" source="zBTAGkf1-Lc7cg8zBFCE-80" target="zBTAGkf1-Lc7cg8zBFCE-81" edge="1">
          <mxGeometry width="50" height="50" relative="1" as="geometry">
            <mxPoint x="955" y="1768.0900000000001" as="sourcePoint" />
            <mxPoint x="1005" y="1718.0900000000001" as="targetPoint" />
          </mxGeometry>
        </mxCell>
        <mxCell id="zBTAGkf1-Lc7cg8zBFCE-109" value="" style="endArrow=classic;html=1;rounded=0;exitX=0;exitY=0.5;exitDx=0;exitDy=0;entryX=1;entryY=0.5;entryDx=0;entryDy=0;endSize=6;movable=1;resizable=1;rotatable=1;deletable=1;editable=1;locked=0;connectable=1;" parent="1" source="zBTAGkf1-Lc7cg8zBFCE-65" target="_x0-wylek2HW_SOhxotY-128" edge="1">
          <mxGeometry width="50" height="50" relative="1" as="geometry">
            <mxPoint x="1228" y="1038.4" as="sourcePoint" />
            <mxPoint x="1241.1" y="1035.405" as="targetPoint" />
            <Array as="points">
              <mxPoint x="1241" y="980" />
            </Array>
          </mxGeometry>
        </mxCell>
        <mxCell id="zBTAGkf1-Lc7cg8zBFCE-111" value="&lt;b&gt;Lamp_airb OFF&lt;/b&gt;" style="rounded=0;whiteSpace=wrap;html=1;fillColor=#e6d0de;strokeColor=#996185;gradientColor=#d5739d;movable=1;resizable=1;rotatable=1;deletable=1;editable=1;locked=0;connectable=1;container=0;" parent="1" vertex="1">
          <mxGeometry x="885" y="1608" width="110" height="20" as="geometry" />
        </mxCell>
        <mxCell id="zBTAGkf1-Lc7cg8zBFCE-112" value="" style="endArrow=classic;html=1;rounded=0;exitX=0.5;exitY=1;exitDx=0;exitDy=0;entryX=0.5;entryY=0;entryDx=0;entryDy=0;movable=1;resizable=1;rotatable=1;deletable=1;editable=1;locked=0;connectable=1;" parent="1" source="zBTAGkf1-Lc7cg8zBFCE-111" target="zBTAGkf1-Lc7cg8zBFCE-78" edge="1">
          <mxGeometry width="50" height="50" relative="1" as="geometry">
            <mxPoint x="938" y="1671" as="sourcePoint" />
            <mxPoint x="988" y="1621" as="targetPoint" />
          </mxGeometry>
        </mxCell>
        <mxCell id="zBTAGkf1-Lc7cg8zBFCE-123" value="" style="endArrow=classic;html=1;rounded=0;exitX=1;exitY=0.5;exitDx=0;exitDy=0;movable=1;resizable=1;rotatable=1;deletable=1;editable=1;locked=0;connectable=1;" parent="1" source="_x0-wylek2HW_SOhxotY-249" edge="1">
          <mxGeometry width="50" height="50" relative="1" as="geometry">
            <mxPoint x="1304" y="1073.5" as="sourcePoint" />
            <mxPoint x="1902" y="1390" as="targetPoint" />
            <Array as="points">
              <mxPoint x="1899" y="981" />
            </Array>
          </mxGeometry>
        </mxCell>
        <mxCell id="zBTAGkf1-Lc7cg8zBFCE-124" value="&lt;b&gt;Buzzer ON&lt;/b&gt;" style="rounded=0;whiteSpace=wrap;html=1;fillColor=#d0cee2;strokeColor=#56517e;movable=1;resizable=1;rotatable=1;deletable=1;editable=1;locked=0;connectable=1;container=0;" parent="1" vertex="1">
          <mxGeometry x="1335" y="1969" width="110" height="20" as="geometry" />
        </mxCell>
        <mxCell id="zBTAGkf1-Lc7cg8zBFCE-125" value="&lt;b&gt;Delay 0.15&lt;/b&gt;" style="rounded=0;whiteSpace=wrap;html=1;fillColor=#fff2cc;gradientColor=#ffd966;strokeColor=#d6b656;movable=1;resizable=1;rotatable=1;deletable=1;editable=1;locked=0;connectable=1;container=0;" parent="1" vertex="1">
          <mxGeometry x="1335" y="2002" width="110" height="20" as="geometry" />
        </mxCell>
        <mxCell id="zBTAGkf1-Lc7cg8zBFCE-126" value="&lt;b&gt;Buzzer OFF&lt;/b&gt;" style="rounded=0;whiteSpace=wrap;html=1;fillColor=#d0cee2;strokeColor=#56517e;movable=1;resizable=1;rotatable=1;deletable=1;editable=1;locked=0;connectable=1;container=0;" parent="1" vertex="1">
          <mxGeometry x="1335" y="2039" width="110" height="20" as="geometry" />
        </mxCell>
        <mxCell id="_x0-wylek2HW_SOhxotY-279" style="edgeStyle=orthogonalEdgeStyle;rounded=0;orthogonalLoop=1;jettySize=auto;html=1;" edge="1" parent="1" source="zBTAGkf1-Lc7cg8zBFCE-127">
          <mxGeometry relative="1" as="geometry">
            <mxPoint x="1616" y="1757" as="targetPoint" />
            <Array as="points">
              <mxPoint x="1390" y="2139" />
              <mxPoint x="1271" y="2139" />
              <mxPoint x="1271" y="1757" />
            </Array>
          </mxGeometry>
        </mxCell>
        <mxCell id="zBTAGkf1-Lc7cg8zBFCE-127" value="&lt;b&gt;Delay 0.1&lt;/b&gt;" style="rounded=0;whiteSpace=wrap;html=1;fillColor=#fff2cc;gradientColor=#ffd966;strokeColor=#d6b656;movable=1;resizable=1;rotatable=1;deletable=1;editable=1;locked=0;connectable=1;container=0;" parent="1" vertex="1">
          <mxGeometry x="1335" y="2079" width="110" height="20" as="geometry" />
        </mxCell>
        <mxCell id="zBTAGkf1-Lc7cg8zBFCE-128" value="" style="triangle;whiteSpace=wrap;html=1;rotation=-90;fillColor=#f5f5f5;gradientColor=#b3b3b3;strokeColor=#666666;movable=1;resizable=1;rotatable=1;deletable=1;editable=1;locked=0;connectable=1;container=0;" parent="1" vertex="1">
          <mxGeometry x="1598" y="1765" width="65" height="123.81" as="geometry" />
        </mxCell>
        <mxCell id="zBTAGkf1-Lc7cg8zBFCE-129" value="&lt;b&gt;time &amp;lt; 12&lt;/b&gt;" style="text;html=1;align=center;verticalAlign=middle;whiteSpace=wrap;rounded=0;movable=1;resizable=1;rotatable=1;deletable=1;editable=1;locked=0;connectable=1;container=0;" parent="1" vertex="1">
          <mxGeometry x="1601.1" y="1823.9" width="60" height="30" as="geometry" />
        </mxCell>
        <mxCell id="_x0-wylek2HW_SOhxotY-281" style="edgeStyle=orthogonalEdgeStyle;rounded=0;orthogonalLoop=1;jettySize=auto;html=1;" edge="1" parent="1" source="zBTAGkf1-Lc7cg8zBFCE-130" target="_x0-wylek2HW_SOhxotY-280">
          <mxGeometry relative="1" as="geometry" />
        </mxCell>
        <mxCell id="zBTAGkf1-Lc7cg8zBFCE-130" value="False" style="rounded=0;whiteSpace=wrap;html=1;shadow=0;fillStyle=solid;fillColor=#a20025;fontColor=#ffffff;strokeColor=#6F0000;movable=1;resizable=1;rotatable=1;deletable=1;editable=1;locked=0;connectable=1;container=0;" parent="1" vertex="1">
          <mxGeometry x="1698" y="1816.93" width="40" height="19.96" as="geometry" />
        </mxCell>
        <mxCell id="_x0-wylek2HW_SOhxotY-274" style="edgeStyle=orthogonalEdgeStyle;rounded=0;orthogonalLoop=1;jettySize=auto;html=1;entryX=1;entryY=0.5;entryDx=0;entryDy=0;" edge="1" parent="1" source="zBTAGkf1-Lc7cg8zBFCE-131" target="_x0-wylek2HW_SOhxotY-265">
          <mxGeometry relative="1" as="geometry">
            <Array as="points">
              <mxPoint x="1503" y="1827" />
              <mxPoint x="1503" y="1859" />
            </Array>
          </mxGeometry>
        </mxCell>
        <mxCell id="zBTAGkf1-Lc7cg8zBFCE-131" value="True" style="rounded=0;whiteSpace=wrap;html=1;shadow=0;fillStyle=solid;fillColor=#60a917;fontColor=#ffffff;strokeColor=#2D7600;movable=1;resizable=1;rotatable=1;deletable=1;editable=1;locked=0;connectable=1;container=0;" parent="1" vertex="1">
          <mxGeometry x="1528" y="1816.93" width="40" height="19.96" as="geometry" />
        </mxCell>
        <mxCell id="zBTAGkf1-Lc7cg8zBFCE-132" value="" style="endArrow=none;html=1;rounded=0;exitX=0.5;exitY=0;exitDx=0;exitDy=0;entryX=1;entryY=0.5;entryDx=0;entryDy=0;movable=1;resizable=1;rotatable=1;deletable=1;editable=1;locked=0;connectable=1;" parent="1" source="zBTAGkf1-Lc7cg8zBFCE-128" target="zBTAGkf1-Lc7cg8zBFCE-131" edge="1">
          <mxGeometry width="50" height="50" relative="1" as="geometry">
            <mxPoint x="1728" y="1878.81" as="sourcePoint" />
            <mxPoint x="1778" y="1828.81" as="targetPoint" />
          </mxGeometry>
        </mxCell>
        <mxCell id="zBTAGkf1-Lc7cg8zBFCE-134" value="" style="endArrow=none;html=1;rounded=0;exitX=0.5;exitY=1;exitDx=0;exitDy=0;entryX=0;entryY=0.5;entryDx=0;entryDy=0;movable=1;resizable=1;rotatable=1;deletable=1;editable=1;locked=0;connectable=1;" parent="1" source="zBTAGkf1-Lc7cg8zBFCE-128" target="zBTAGkf1-Lc7cg8zBFCE-130" edge="1">
          <mxGeometry width="50" height="50" relative="1" as="geometry">
            <mxPoint x="1688" y="1878.81" as="sourcePoint" />
            <mxPoint x="1738" y="1828.81" as="targetPoint" />
          </mxGeometry>
        </mxCell>
        <mxCell id="zBTAGkf1-Lc7cg8zBFCE-135" value="" style="endArrow=classic;html=1;rounded=0;exitX=0.5;exitY=1;exitDx=0;exitDy=0;entryX=0.5;entryY=0;entryDx=0;entryDy=0;movable=1;resizable=1;rotatable=1;deletable=1;editable=1;locked=0;connectable=1;" parent="1" source="zBTAGkf1-Lc7cg8zBFCE-124" target="zBTAGkf1-Lc7cg8zBFCE-125" edge="1">
          <mxGeometry width="50" height="50" relative="1" as="geometry">
            <mxPoint x="1415" y="2019" as="sourcePoint" />
            <mxPoint x="1465" y="1969" as="targetPoint" />
          </mxGeometry>
        </mxCell>
        <mxCell id="zBTAGkf1-Lc7cg8zBFCE-136" value="" style="endArrow=classic;html=1;rounded=0;exitX=0.5;exitY=1;exitDx=0;exitDy=0;entryX=0.5;entryY=0;entryDx=0;entryDy=0;movable=1;resizable=1;rotatable=1;deletable=1;editable=1;locked=0;connectable=1;" parent="1" source="zBTAGkf1-Lc7cg8zBFCE-125" target="zBTAGkf1-Lc7cg8zBFCE-126" edge="1">
          <mxGeometry width="50" height="50" relative="1" as="geometry">
            <mxPoint x="1405" y="2029" as="sourcePoint" />
            <mxPoint x="1455" y="1979" as="targetPoint" />
          </mxGeometry>
        </mxCell>
        <mxCell id="zBTAGkf1-Lc7cg8zBFCE-137" value="" style="endArrow=classic;html=1;rounded=0;exitX=0.5;exitY=1;exitDx=0;exitDy=0;entryX=0.5;entryY=0;entryDx=0;entryDy=0;movable=1;resizable=1;rotatable=1;deletable=1;editable=1;locked=0;connectable=1;" parent="1" source="zBTAGkf1-Lc7cg8zBFCE-126" target="zBTAGkf1-Lc7cg8zBFCE-127" edge="1">
          <mxGeometry width="50" height="50" relative="1" as="geometry">
            <mxPoint x="1405" y="2059" as="sourcePoint" />
            <mxPoint x="1455" y="2009" as="targetPoint" />
          </mxGeometry>
        </mxCell>
        <mxCell id="zBTAGkf1-Lc7cg8zBFCE-138" value="" style="endArrow=classic;html=1;rounded=0;exitX=0;exitY=0.5;exitDx=0;exitDy=0;movable=1;resizable=1;rotatable=1;deletable=1;editable=1;locked=0;connectable=1;" parent="1" source="zBTAGkf1-Lc7cg8zBFCE-119" edge="1">
          <mxGeometry width="50" height="50" relative="1" as="geometry">
            <mxPoint x="1665" y="1619.5" as="sourcePoint" />
            <mxPoint x="1762" y="1688" as="targetPoint" />
            <Array as="points">
              <mxPoint x="1762" y="1582.5" />
            </Array>
          </mxGeometry>
        </mxCell>
        <mxCell id="zBTAGkf1-Lc7cg8zBFCE-149" value="" style="endArrow=classic;html=1;rounded=0;entryX=0.5;entryY=0;entryDx=0;entryDy=0;exitX=0.5;exitY=1;exitDx=0;exitDy=0;movable=1;resizable=1;rotatable=1;deletable=1;editable=1;locked=0;connectable=1;" parent="1" source="zBTAGkf1-Lc7cg8zBFCE-19" target="zBTAGkf1-Lc7cg8zBFCE-21" edge="1">
          <mxGeometry width="50" height="50" relative="1" as="geometry">
            <mxPoint x="987.5" y="43" as="sourcePoint" />
            <mxPoint x="1037.5" y="-7" as="targetPoint" />
          </mxGeometry>
        </mxCell>
        <mxCell id="zBTAGkf1-Lc7cg8zBFCE-23" value="" style="triangle;whiteSpace=wrap;html=1;rotation=-90;fillColor=#fad9d5;strokeColor=#ae4132;movable=1;resizable=1;rotatable=1;deletable=1;editable=1;locked=0;connectable=1;container=0;" parent="1" vertex="1">
          <mxGeometry x="798.5" y="521" width="105" height="200" as="geometry" />
        </mxCell>
        <mxCell id="zBTAGkf1-Lc7cg8zBFCE-24" value="&lt;b&gt;If&amp;nbsp;&lt;/b&gt;&lt;div&gt;&lt;b&gt;KLEM15= 1&amp;nbsp;&amp;nbsp;&lt;/b&gt;&lt;/div&gt;" style="text;html=1;align=center;verticalAlign=middle;whiteSpace=wrap;rounded=0;movable=1;resizable=1;rotatable=1;deletable=1;editable=1;locked=0;connectable=1;container=0;" parent="1" vertex="1">
          <mxGeometry x="801" y="612" width="106" height="50" as="geometry" />
        </mxCell>
        <mxCell id="_x0-wylek2HW_SOhxotY-181" style="edgeStyle=orthogonalEdgeStyle;rounded=0;orthogonalLoop=1;jettySize=auto;html=1;entryX=1;entryY=0.5;entryDx=0;entryDy=0;" edge="1" parent="1" source="zBTAGkf1-Lc7cg8zBFCE-38" target="_x0-wylek2HW_SOhxotY-2">
          <mxGeometry relative="1" as="geometry" />
        </mxCell>
        <mxCell id="zBTAGkf1-Lc7cg8zBFCE-38" value="True" style="rounded=0;whiteSpace=wrap;html=1;shadow=0;fillStyle=solid;fillColor=#60a917;strokeColor=#2D7600;fontColor=#ffffff;movable=1;resizable=1;rotatable=1;deletable=1;editable=1;locked=0;connectable=1;container=0;" parent="1" vertex="1">
          <mxGeometry x="726" y="611" width="40" height="19.96" as="geometry" />
        </mxCell>
        <mxCell id="zBTAGkf1-Lc7cg8zBFCE-42" value="" style="endArrow=none;html=1;rounded=0;entryX=0.5;entryY=0;entryDx=0;entryDy=0;exitX=1;exitY=0.5;exitDx=0;exitDy=0;movable=1;resizable=1;rotatable=1;deletable=1;editable=1;locked=0;connectable=1;" parent="1" source="zBTAGkf1-Lc7cg8zBFCE-38" target="zBTAGkf1-Lc7cg8zBFCE-23" edge="1">
          <mxGeometry width="50" height="50" relative="1" as="geometry">
            <mxPoint x="726" y="681" as="sourcePoint" />
            <mxPoint x="776" y="631" as="targetPoint" />
          </mxGeometry>
        </mxCell>
        <mxCell id="_x0-wylek2HW_SOhxotY-183" style="edgeStyle=orthogonalEdgeStyle;rounded=0;orthogonalLoop=1;jettySize=auto;html=1;entryX=0.5;entryY=0;entryDx=0;entryDy=0;" edge="1" parent="1" source="_x0-wylek2HW_SOhxotY-221" target="_x0-wylek2HW_SOhxotY-100">
          <mxGeometry relative="1" as="geometry" />
        </mxCell>
        <mxCell id="zBTAGkf1-Lc7cg8zBFCE-43" value="False" style="rounded=0;whiteSpace=wrap;html=1;shadow=0;fillStyle=solid;fillColor=#a20025;fontColor=#ffffff;strokeColor=#6F0000;movable=1;resizable=1;rotatable=1;deletable=1;editable=1;locked=0;connectable=1;container=0;" parent="1" vertex="1">
          <mxGeometry x="936" y="611" width="40" height="19.96" as="geometry" />
        </mxCell>
        <mxCell id="zBTAGkf1-Lc7cg8zBFCE-45" value="" style="endArrow=none;html=1;rounded=0;entryX=0.5;entryY=1;entryDx=0;entryDy=0;exitX=0;exitY=0.5;exitDx=0;exitDy=0;movable=1;resizable=1;rotatable=1;deletable=1;editable=1;locked=0;connectable=1;" parent="1" source="zBTAGkf1-Lc7cg8zBFCE-43" target="zBTAGkf1-Lc7cg8zBFCE-23" edge="1">
          <mxGeometry width="50" height="50" relative="1" as="geometry">
            <mxPoint x="826" y="661" as="sourcePoint" />
            <mxPoint x="876" y="611" as="targetPoint" />
          </mxGeometry>
        </mxCell>
        <mxCell id="zBTAGkf1-Lc7cg8zBFCE-63" value="" style="triangle;whiteSpace=wrap;html=1;rotation=-90;fillColor=#fad9d5;strokeColor=#ae4132;movable=1;resizable=1;rotatable=1;deletable=1;editable=1;locked=0;connectable=1;container=0;" parent="1" vertex="1">
          <mxGeometry x="1340.5" y="880.9" width="105" height="200" as="geometry" />
        </mxCell>
        <mxCell id="zBTAGkf1-Lc7cg8zBFCE-64" value="&lt;b&gt;If&amp;nbsp;&lt;br&gt;&lt;/b&gt;&lt;div&gt;&lt;b style=&quot;background-color: initial;&quot;&gt;KLEM15 = 1&lt;/b&gt;&lt;/div&gt;&lt;div&gt;&lt;b&gt;KLEM30 = 1&amp;nbsp;&lt;/b&gt;&lt;div&gt;&lt;b&gt;and&lt;/b&gt;&lt;/div&gt;&lt;div&gt;&lt;b&gt;&amp;nbsp;BELT_SENSOR&lt;/b&gt;&lt;br&gt;&lt;/div&gt;&lt;/div&gt;" style="text;html=1;align=center;verticalAlign=middle;whiteSpace=wrap;rounded=0;movable=1;resizable=1;rotatable=1;deletable=1;editable=1;locked=0;connectable=1;container=0;" parent="1" vertex="1">
          <mxGeometry x="1336" y="964.4" width="120" height="60" as="geometry" />
        </mxCell>
        <mxCell id="zBTAGkf1-Lc7cg8zBFCE-65" value="True" style="rounded=0;whiteSpace=wrap;html=1;shadow=0;fillStyle=solid;fillColor=#60a917;fontColor=#ffffff;strokeColor=#2D7600;movable=1;resizable=1;rotatable=1;deletable=1;editable=1;locked=0;connectable=1;container=0;" parent="1" vertex="1">
          <mxGeometry x="1268" y="970.9" width="40" height="19.96" as="geometry" />
        </mxCell>
        <mxCell id="zBTAGkf1-Lc7cg8zBFCE-66" value="" style="endArrow=none;html=1;rounded=0;entryX=0.5;entryY=0;entryDx=0;entryDy=0;exitX=1;exitY=0.5;exitDx=0;exitDy=0;movable=1;resizable=1;rotatable=1;deletable=1;editable=1;locked=0;connectable=1;" parent="1" source="zBTAGkf1-Lc7cg8zBFCE-65" target="zBTAGkf1-Lc7cg8zBFCE-63" edge="1">
          <mxGeometry width="50" height="50" relative="1" as="geometry">
            <mxPoint x="1268" y="1040.9" as="sourcePoint" />
            <mxPoint x="1318" y="990.9" as="targetPoint" />
          </mxGeometry>
        </mxCell>
        <mxCell id="zBTAGkf1-Lc7cg8zBFCE-67" value="False" style="rounded=0;whiteSpace=wrap;html=1;shadow=0;fillStyle=solid;fillColor=#a20025;fontColor=#ffffff;strokeColor=#6F0000;movable=1;resizable=1;rotatable=1;deletable=1;editable=1;locked=0;connectable=1;container=0;" parent="1" vertex="1">
          <mxGeometry x="1478" y="970.9" width="40" height="19.96" as="geometry" />
        </mxCell>
        <mxCell id="zBTAGkf1-Lc7cg8zBFCE-68" value="" style="endArrow=none;html=1;rounded=0;entryX=0.5;entryY=1;entryDx=0;entryDy=0;exitX=0;exitY=0.5;exitDx=0;exitDy=0;movable=1;resizable=1;rotatable=1;deletable=1;editable=1;locked=0;connectable=1;" parent="1" source="zBTAGkf1-Lc7cg8zBFCE-67" target="zBTAGkf1-Lc7cg8zBFCE-63" edge="1">
          <mxGeometry width="50" height="50" relative="1" as="geometry">
            <mxPoint x="1368" y="1020.9" as="sourcePoint" />
            <mxPoint x="1418" y="970.9" as="targetPoint" />
          </mxGeometry>
        </mxCell>
        <mxCell id="zBTAGkf1-Lc7cg8zBFCE-117" value="" style="triangle;whiteSpace=wrap;html=1;rotation=-90;fillColor=#fad9d5;strokeColor=#ae4132;movable=1;resizable=1;rotatable=1;deletable=1;editable=1;locked=0;connectable=1;container=0;" parent="1" vertex="1">
          <mxGeometry x="1849.5" y="1482" width="105" height="200" as="geometry" />
        </mxCell>
        <mxCell id="zBTAGkf1-Lc7cg8zBFCE-118" value="&lt;b&gt;If&amp;nbsp;&lt;/b&gt;&lt;div&gt;&lt;b&gt;KLEM15 = 0&lt;/b&gt;&lt;/div&gt;&lt;div&gt;&lt;b&gt;KLEM30 = 0&lt;/b&gt;&lt;/div&gt;&lt;div&gt;&lt;b&gt;and&lt;br&gt;&lt;/b&gt;&lt;div&gt;&lt;b&gt;LIGHT_SENSOR = 1&lt;/b&gt;&lt;/div&gt;&lt;/div&gt;" style="text;html=1;align=center;verticalAlign=middle;whiteSpace=wrap;rounded=0;movable=1;resizable=1;rotatable=1;deletable=1;editable=1;locked=0;connectable=1;container=0;" parent="1" vertex="1">
          <mxGeometry x="1838" y="1567" width="128" height="50" as="geometry" />
        </mxCell>
        <mxCell id="zBTAGkf1-Lc7cg8zBFCE-119" value="True" style="rounded=0;whiteSpace=wrap;html=1;shadow=0;fillStyle=solid;fillColor=#60a917;fontColor=#ffffff;strokeColor=#2D7600;movable=1;resizable=1;rotatable=1;deletable=1;editable=1;locked=0;connectable=1;container=0;" parent="1" vertex="1">
          <mxGeometry x="1777" y="1572" width="40" height="19.96" as="geometry" />
        </mxCell>
        <mxCell id="zBTAGkf1-Lc7cg8zBFCE-120" value="" style="endArrow=none;html=1;rounded=0;entryX=0.5;entryY=0;entryDx=0;entryDy=0;exitX=1;exitY=0.5;exitDx=0;exitDy=0;movable=1;resizable=1;rotatable=1;deletable=1;editable=1;locked=0;connectable=1;" parent="1" source="zBTAGkf1-Lc7cg8zBFCE-119" target="zBTAGkf1-Lc7cg8zBFCE-117" edge="1">
          <mxGeometry width="50" height="50" relative="1" as="geometry">
            <mxPoint x="1777" y="1642" as="sourcePoint" />
            <mxPoint x="1827" y="1592" as="targetPoint" />
          </mxGeometry>
        </mxCell>
        <mxCell id="_x0-wylek2HW_SOhxotY-282" style="edgeStyle=orthogonalEdgeStyle;rounded=0;orthogonalLoop=1;jettySize=auto;html=1;" edge="1" parent="1" source="zBTAGkf1-Lc7cg8zBFCE-121">
          <mxGeometry relative="1" as="geometry">
            <mxPoint x="2066" y="2002" as="targetPoint" />
          </mxGeometry>
        </mxCell>
        <mxCell id="zBTAGkf1-Lc7cg8zBFCE-121" value="False" style="rounded=0;whiteSpace=wrap;html=1;shadow=0;fillStyle=solid;fillColor=#a20025;fontColor=#ffffff;strokeColor=#6F0000;movable=1;resizable=1;rotatable=1;deletable=1;editable=1;locked=0;connectable=1;container=0;" parent="1" vertex="1">
          <mxGeometry x="1987" y="1572" width="40" height="19.96" as="geometry" />
        </mxCell>
        <mxCell id="zBTAGkf1-Lc7cg8zBFCE-122" value="" style="endArrow=none;html=1;rounded=0;entryX=0.5;entryY=1;entryDx=0;entryDy=0;exitX=0;exitY=0.5;exitDx=0;exitDy=0;movable=1;resizable=1;rotatable=1;deletable=1;editable=1;locked=0;connectable=1;" parent="1" source="zBTAGkf1-Lc7cg8zBFCE-121" target="zBTAGkf1-Lc7cg8zBFCE-117" edge="1">
          <mxGeometry width="50" height="50" relative="1" as="geometry">
            <mxPoint x="1877" y="1622" as="sourcePoint" />
            <mxPoint x="1927" y="1572" as="targetPoint" />
          </mxGeometry>
        </mxCell>
        <mxCell id="_x0-wylek2HW_SOhxotY-2" value="" style="triangle;whiteSpace=wrap;html=1;rotation=-90;fillColor=#f5f5f5;gradientColor=#b3b3b3;strokeColor=#666666;movable=1;resizable=1;rotatable=1;deletable=1;editable=1;locked=0;connectable=1;container=0;" vertex="1" parent="1">
          <mxGeometry x="481.91999999999996" y="691" width="65" height="123.81" as="geometry" />
        </mxCell>
        <mxCell id="_x0-wylek2HW_SOhxotY-3" value="&lt;b&gt;doorState = 0&lt;/b&gt;" style="text;html=1;align=center;verticalAlign=middle;whiteSpace=wrap;rounded=0;movable=1;resizable=1;rotatable=1;deletable=1;editable=1;locked=0;connectable=1;container=0;" vertex="1" parent="1">
          <mxGeometry x="486.91999999999996" y="750.0000000000001" width="60" height="30" as="geometry" />
        </mxCell>
        <mxCell id="_x0-wylek2HW_SOhxotY-5" value="" style="endArrow=none;html=1;rounded=0;entryX=0.5;entryY=0;entryDx=0;entryDy=0;exitX=1;exitY=0.5;exitDx=0;exitDy=0;movable=1;resizable=1;rotatable=1;deletable=1;editable=1;locked=0;connectable=1;" edge="1" parent="1">
          <mxGeometry width="50" height="50" relative="1" as="geometry">
            <mxPoint x="443.91999999999996" y="757" as="sourcePoint" />
            <mxPoint x="478.91999999999996" y="757" as="targetPoint" />
          </mxGeometry>
        </mxCell>
        <mxCell id="_x0-wylek2HW_SOhxotY-165" style="edgeStyle=orthogonalEdgeStyle;rounded=0;orthogonalLoop=1;jettySize=auto;html=1;entryX=1;entryY=0.5;entryDx=0;entryDy=0;" edge="1" parent="1" source="_x0-wylek2HW_SOhxotY-93" target="zBTAGkf1-Lc7cg8zBFCE-34">
          <mxGeometry relative="1" as="geometry">
            <mxPoint x="373" y="818" as="targetPoint" />
            <Array as="points">
              <mxPoint x="374" y="757" />
            </Array>
          </mxGeometry>
        </mxCell>
        <mxCell id="_x0-wylek2HW_SOhxotY-93" value="True" style="rounded=0;whiteSpace=wrap;html=1;shadow=0;fillStyle=solid;fillColor=#60a917;strokeColor=#2D7600;fontColor=#ffffff;movable=1;resizable=1;rotatable=1;deletable=1;editable=1;locked=0;connectable=1;container=0;" vertex="1" parent="1">
          <mxGeometry x="403.91999999999996" y="747" width="40" height="19.96" as="geometry" />
        </mxCell>
        <mxCell id="_x0-wylek2HW_SOhxotY-94" value="False" style="rounded=0;whiteSpace=wrap;html=1;shadow=0;fillStyle=solid;fillColor=#a20025;fontColor=#ffffff;strokeColor=#6F0000;movable=1;resizable=1;rotatable=1;deletable=1;editable=1;locked=0;connectable=1;container=0;" vertex="1" parent="1">
          <mxGeometry x="583.92" y="747" width="40" height="19.96" as="geometry" />
        </mxCell>
        <mxCell id="_x0-wylek2HW_SOhxotY-95" value="" style="endArrow=none;html=1;rounded=0;entryX=0.5;entryY=1;entryDx=0;entryDy=0;exitX=0;exitY=0.5;exitDx=0;exitDy=0;movable=1;resizable=1;rotatable=1;deletable=1;editable=1;locked=0;connectable=1;" edge="1" parent="1" source="_x0-wylek2HW_SOhxotY-94">
          <mxGeometry width="50" height="50" relative="1" as="geometry">
            <mxPoint x="473.91999999999996" y="797" as="sourcePoint" />
            <mxPoint x="548.92" y="757" as="targetPoint" />
          </mxGeometry>
        </mxCell>
        <mxCell id="_x0-wylek2HW_SOhxotY-101" style="edgeStyle=orthogonalEdgeStyle;rounded=0;orthogonalLoop=1;jettySize=auto;html=1;exitX=0.5;exitY=1;exitDx=0;exitDy=0;entryX=1;entryY=0.5;entryDx=0;entryDy=0;" edge="1" parent="1" source="_x0-wylek2HW_SOhxotY-100" target="zBTAGkf1-Lc7cg8zBFCE-63">
          <mxGeometry relative="1" as="geometry" />
        </mxCell>
        <mxCell id="_x0-wylek2HW_SOhxotY-100" value="&lt;b&gt;Delay 0.1&lt;/b&gt;" style="rounded=0;whiteSpace=wrap;html=1;fillColor=#fff2cc;gradientColor=#ffd966;strokeColor=#d6b656;movable=1;resizable=1;rotatable=1;deletable=1;editable=1;locked=0;connectable=1;container=0;" vertex="1" parent="1">
          <mxGeometry x="1337" y="824" width="110" height="20" as="geometry" />
        </mxCell>
        <mxCell id="_x0-wylek2HW_SOhxotY-102" value="" style="triangle;whiteSpace=wrap;html=1;rotation=-90;fillColor=#f5f5f5;gradientColor=#b3b3b3;strokeColor=#666666;movable=1;resizable=1;rotatable=1;deletable=1;editable=1;locked=0;connectable=1;container=0;" vertex="1" parent="1">
          <mxGeometry x="223.04" y="1120.08" width="65" height="123.81" as="geometry" />
        </mxCell>
        <mxCell id="_x0-wylek2HW_SOhxotY-103" value="&lt;b&gt;&lt;font style=&quot;font-size: 10px;&quot;&gt;KLEM30&lt;/font&gt;&lt;/b&gt;&lt;div&gt;&lt;b&gt;&lt;font style=&quot;font-size: 10px;&quot;&gt;and&amp;nbsp;&lt;/font&gt;&lt;/b&gt;&lt;/div&gt;&lt;div&gt;&lt;b&gt;&lt;font style=&quot;font-size: 10px;&quot;&gt;BELT_SENSOR = 1&lt;/font&gt;&lt;/b&gt;&lt;/div&gt;" style="text;html=1;align=center;verticalAlign=middle;whiteSpace=wrap;rounded=0;movable=1;resizable=1;rotatable=1;deletable=1;editable=1;locked=0;connectable=1;container=0;" vertex="1" parent="1">
          <mxGeometry x="196.54" y="1176" width="119" height="30" as="geometry" />
        </mxCell>
        <mxCell id="_x0-wylek2HW_SOhxotY-118" style="edgeStyle=orthogonalEdgeStyle;rounded=0;orthogonalLoop=1;jettySize=auto;html=1;entryX=0.5;entryY=0;entryDx=0;entryDy=0;" edge="1" parent="1" source="_x0-wylek2HW_SOhxotY-104" target="_x0-wylek2HW_SOhxotY-117">
          <mxGeometry relative="1" as="geometry">
            <Array as="points">
              <mxPoint x="387.03999999999996" y="1182" />
              <mxPoint x="387.03999999999996" y="1218" />
            </Array>
          </mxGeometry>
        </mxCell>
        <mxCell id="_x0-wylek2HW_SOhxotY-104" value="False" style="rounded=0;whiteSpace=wrap;html=1;shadow=0;fillStyle=solid;fillColor=#a20025;fontColor=#ffffff;strokeColor=#6F0000;movable=1;resizable=1;rotatable=1;deletable=1;editable=1;locked=0;connectable=1;container=0;" vertex="1" parent="1">
          <mxGeometry x="323.03999999999996" y="1172.01" width="40" height="19.96" as="geometry" />
        </mxCell>
        <mxCell id="_x0-wylek2HW_SOhxotY-105" value="True" style="rounded=0;whiteSpace=wrap;html=1;shadow=0;fillStyle=solid;fillColor=#60a917;fontColor=#ffffff;strokeColor=#2D7600;movable=1;resizable=1;rotatable=1;deletable=1;editable=1;locked=0;connectable=1;container=0;" vertex="1" parent="1">
          <mxGeometry x="153.04" y="1172.01" width="40" height="19.96" as="geometry" />
        </mxCell>
        <mxCell id="_x0-wylek2HW_SOhxotY-106" value="" style="endArrow=none;html=1;rounded=0;exitX=0.5;exitY=0;exitDx=0;exitDy=0;entryX=1;entryY=0.5;entryDx=0;entryDy=0;movable=1;resizable=1;rotatable=1;deletable=1;editable=1;locked=0;connectable=1;" edge="1" parent="1" source="_x0-wylek2HW_SOhxotY-102" target="_x0-wylek2HW_SOhxotY-105">
          <mxGeometry width="50" height="50" relative="1" as="geometry">
            <mxPoint x="353.03999999999996" y="1233.8899999999999" as="sourcePoint" />
            <mxPoint x="403.03999999999996" y="1183.8899999999999" as="targetPoint" />
          </mxGeometry>
        </mxCell>
        <mxCell id="_x0-wylek2HW_SOhxotY-107" value="" style="endArrow=none;html=1;rounded=0;exitX=0.5;exitY=1;exitDx=0;exitDy=0;entryX=0;entryY=0.5;entryDx=0;entryDy=0;movable=1;resizable=1;rotatable=1;deletable=1;editable=1;locked=0;connectable=1;" edge="1" parent="1" source="_x0-wylek2HW_SOhxotY-102" target="_x0-wylek2HW_SOhxotY-104">
          <mxGeometry width="50" height="50" relative="1" as="geometry">
            <mxPoint x="313.03999999999996" y="1233.8899999999999" as="sourcePoint" />
            <mxPoint x="363.03999999999996" y="1183.8899999999999" as="targetPoint" />
          </mxGeometry>
        </mxCell>
        <mxCell id="_x0-wylek2HW_SOhxotY-108" value="" style="triangle;whiteSpace=wrap;html=1;rotation=-90;fillColor=#f5f5f5;gradientColor=#b3b3b3;strokeColor=#666666;movable=1;resizable=1;rotatable=1;deletable=1;editable=1;locked=0;connectable=1;container=0;" vertex="1" parent="1">
          <mxGeometry x="354.03999999999996" y="1277" width="65" height="123.81" as="geometry" />
        </mxCell>
        <mxCell id="_x0-wylek2HW_SOhxotY-109" value="&lt;div&gt;&lt;br&gt;&lt;/div&gt;&lt;div&gt;&lt;br&gt;&lt;/div&gt;&lt;div&gt;&lt;div&gt;&lt;b&gt;&lt;font style=&quot;font-size: 8px;&quot;&gt;DOOR_SENSOR&amp;nbsp;&lt;/font&gt;&lt;/b&gt;&lt;/div&gt;&lt;div&gt;&lt;b&gt;&lt;font style=&quot;font-size: 8px;&quot;&gt;= 0&lt;/font&gt;&lt;/b&gt;&lt;/div&gt;&lt;/div&gt;" style="text;html=1;align=center;verticalAlign=middle;whiteSpace=wrap;rounded=0;movable=1;resizable=1;rotatable=1;deletable=1;editable=1;locked=0;connectable=1;container=0;" vertex="1" parent="1">
          <mxGeometry x="326.49" y="1319" width="120.1" height="45" as="geometry" />
        </mxCell>
        <mxCell id="_x0-wylek2HW_SOhxotY-112" value="" style="endArrow=none;html=1;rounded=0;exitX=0.5;exitY=0;exitDx=0;exitDy=0;entryX=1;entryY=0.5;entryDx=0;entryDy=0;movable=1;resizable=1;rotatable=1;deletable=1;editable=1;locked=0;connectable=1;" edge="1" parent="1" source="_x0-wylek2HW_SOhxotY-108">
          <mxGeometry width="50" height="50" relative="1" as="geometry">
            <mxPoint x="484.03999999999996" y="1390.81" as="sourcePoint" />
            <mxPoint x="324.03999999999996" y="1338.9099999999999" as="targetPoint" />
          </mxGeometry>
        </mxCell>
        <mxCell id="_x0-wylek2HW_SOhxotY-121" style="edgeStyle=orthogonalEdgeStyle;rounded=0;orthogonalLoop=1;jettySize=auto;html=1;" edge="1" parent="1">
          <mxGeometry relative="1" as="geometry">
            <mxPoint x="386.03999999999996" y="1287" as="targetPoint" />
            <mxPoint x="99.0400000000001" y="1264" as="sourcePoint" />
            <Array as="points">
              <mxPoint x="127.03999999999999" y="1264" />
              <mxPoint x="127.03999999999999" y="1286" />
              <mxPoint x="386.03999999999996" y="1286" />
            </Array>
          </mxGeometry>
        </mxCell>
        <mxCell id="_x0-wylek2HW_SOhxotY-116" value="&lt;b&gt;Lamp_airb ON&lt;/b&gt;" style="rounded=0;whiteSpace=wrap;html=1;fillColor=#e6d0de;strokeColor=#996185;gradientColor=#d5739d;movable=1;resizable=1;rotatable=1;deletable=1;editable=1;locked=0;connectable=1;container=0;" vertex="1" parent="1">
          <mxGeometry x="72.03999999999999" y="1244" width="110" height="20" as="geometry" />
        </mxCell>
        <mxCell id="_x0-wylek2HW_SOhxotY-122" style="edgeStyle=orthogonalEdgeStyle;rounded=0;orthogonalLoop=1;jettySize=auto;html=1;entryX=1;entryY=0.5;entryDx=0;entryDy=0;" edge="1" parent="1" source="_x0-wylek2HW_SOhxotY-117" target="_x0-wylek2HW_SOhxotY-108">
          <mxGeometry relative="1" as="geometry" />
        </mxCell>
        <mxCell id="_x0-wylek2HW_SOhxotY-117" value="&lt;b&gt;Lamp_airb OFF&lt;/b&gt;" style="rounded=0;whiteSpace=wrap;html=1;fillColor=#e6d0de;strokeColor=#996185;gradientColor=#d5739d;movable=1;resizable=1;rotatable=1;deletable=1;editable=1;locked=0;connectable=1;container=0;" vertex="1" parent="1">
          <mxGeometry x="331.53999999999996" y="1245" width="110" height="20" as="geometry" />
        </mxCell>
        <mxCell id="_x0-wylek2HW_SOhxotY-119" style="edgeStyle=orthogonalEdgeStyle;rounded=0;orthogonalLoop=1;jettySize=auto;html=1;" edge="1" parent="1" source="_x0-wylek2HW_SOhxotY-105">
          <mxGeometry relative="1" as="geometry">
            <mxPoint x="128.04" y="1244" as="targetPoint" />
          </mxGeometry>
        </mxCell>
        <mxCell id="_x0-wylek2HW_SOhxotY-124" value="" style="endArrow=none;html=1;rounded=0;exitX=0.5;exitY=0;exitDx=0;exitDy=0;entryX=1;entryY=0.5;entryDx=0;entryDy=0;movable=1;resizable=1;rotatable=1;deletable=1;editable=1;locked=0;connectable=1;" edge="1" parent="1">
          <mxGeometry width="50" height="50" relative="1" as="geometry">
            <mxPoint x="448.03999999999996" y="1338.09" as="sourcePoint" />
            <mxPoint x="416.03999999999996" y="1337.9999999999998" as="targetPoint" />
          </mxGeometry>
        </mxCell>
        <mxCell id="_x0-wylek2HW_SOhxotY-167" style="edgeStyle=orthogonalEdgeStyle;rounded=0;orthogonalLoop=1;jettySize=auto;html=1;entryX=0.5;entryY=1;entryDx=0;entryDy=0;" edge="1" parent="1" source="_x0-wylek2HW_SOhxotY-123" target="_x0-wylek2HW_SOhxotY-166">
          <mxGeometry relative="1" as="geometry">
            <Array as="points">
              <mxPoint x="520" y="1338" />
            </Array>
          </mxGeometry>
        </mxCell>
        <mxCell id="_x0-wylek2HW_SOhxotY-123" value="True" style="rounded=0;whiteSpace=wrap;html=1;shadow=0;fillStyle=solid;fillColor=#60a917;fontColor=#ffffff;strokeColor=#2D7600;movable=1;resizable=1;rotatable=1;deletable=1;editable=1;locked=0;connectable=1;container=0;" vertex="1" parent="1">
          <mxGeometry x="446.5899999999999" y="1327.9999999999998" width="40" height="19.96" as="geometry" />
        </mxCell>
        <mxCell id="_x0-wylek2HW_SOhxotY-209" style="edgeStyle=orthogonalEdgeStyle;rounded=0;orthogonalLoop=1;jettySize=auto;html=1;entryX=1;entryY=0.5;entryDx=0;entryDy=0;" edge="1" parent="1" source="_x0-wylek2HW_SOhxotY-125" target="_x0-wylek2HW_SOhxotY-203">
          <mxGeometry relative="1" as="geometry">
            <Array as="points">
              <mxPoint x="256" y="1339" />
            </Array>
          </mxGeometry>
        </mxCell>
        <mxCell id="_x0-wylek2HW_SOhxotY-125" value="False" style="rounded=0;whiteSpace=wrap;html=1;shadow=0;fillStyle=solid;fillColor=#a20025;fontColor=#ffffff;strokeColor=#6F0000;movable=1;resizable=1;rotatable=1;deletable=1;editable=1;locked=0;connectable=1;container=0;" vertex="1" parent="1">
          <mxGeometry x="285.03999999999996" y="1328.92" width="40" height="19.96" as="geometry" />
        </mxCell>
        <mxCell id="_x0-wylek2HW_SOhxotY-128" value="" style="triangle;whiteSpace=wrap;html=1;rotation=-90;fillColor=#f5f5f5;gradientColor=#b3b3b3;strokeColor=#666666;movable=1;resizable=1;rotatable=1;deletable=1;editable=1;locked=0;connectable=1;container=0;" vertex="1" parent="1">
          <mxGeometry x="1208.5" y="1016" width="65" height="123.81" as="geometry" />
        </mxCell>
        <mxCell id="_x0-wylek2HW_SOhxotY-129" value="&lt;b&gt;beltState = 0&lt;/b&gt;" style="text;html=1;align=center;verticalAlign=middle;whiteSpace=wrap;rounded=0;movable=1;resizable=1;rotatable=1;deletable=1;editable=1;locked=0;connectable=1;container=0;" vertex="1" parent="1">
          <mxGeometry x="1213.5" y="1075" width="60" height="30" as="geometry" />
        </mxCell>
        <mxCell id="_x0-wylek2HW_SOhxotY-130" value="" style="endArrow=none;html=1;rounded=0;entryX=0.5;entryY=0;entryDx=0;entryDy=0;exitX=1;exitY=0.5;exitDx=0;exitDy=0;movable=1;resizable=1;rotatable=1;deletable=1;editable=1;locked=0;connectable=1;" edge="1" parent="1">
          <mxGeometry width="50" height="50" relative="1" as="geometry">
            <mxPoint x="1170.5" y="1082" as="sourcePoint" />
            <mxPoint x="1205.5" y="1082" as="targetPoint" />
          </mxGeometry>
        </mxCell>
        <mxCell id="_x0-wylek2HW_SOhxotY-140" style="edgeStyle=orthogonalEdgeStyle;rounded=0;orthogonalLoop=1;jettySize=auto;html=1;entryX=1;entryY=0.5;entryDx=0;entryDy=0;" edge="1" parent="1" source="_x0-wylek2HW_SOhxotY-131" target="_x0-wylek2HW_SOhxotY-134">
          <mxGeometry relative="1" as="geometry">
            <Array as="points">
              <mxPoint x="1096.5" y="1082" />
              <mxPoint x="1096.5" y="1114" />
            </Array>
          </mxGeometry>
        </mxCell>
        <mxCell id="_x0-wylek2HW_SOhxotY-131" value="True" style="rounded=0;whiteSpace=wrap;html=1;shadow=0;fillStyle=solid;fillColor=#60a917;strokeColor=#2D7600;fontColor=#ffffff;movable=1;resizable=1;rotatable=1;deletable=1;editable=1;locked=0;connectable=1;container=0;" vertex="1" parent="1">
          <mxGeometry x="1130.5" y="1072" width="40" height="19.96" as="geometry" />
        </mxCell>
        <mxCell id="_x0-wylek2HW_SOhxotY-187" style="edgeStyle=orthogonalEdgeStyle;rounded=0;orthogonalLoop=1;jettySize=auto;html=1;" edge="1" parent="1" source="_x0-wylek2HW_SOhxotY-132">
          <mxGeometry relative="1" as="geometry">
            <mxPoint x="1899" y="1081" as="targetPoint" />
          </mxGeometry>
        </mxCell>
        <mxCell id="_x0-wylek2HW_SOhxotY-132" value="False" style="rounded=0;whiteSpace=wrap;html=1;shadow=0;fillStyle=solid;fillColor=#a20025;fontColor=#ffffff;strokeColor=#6F0000;movable=1;resizable=1;rotatable=1;deletable=1;editable=1;locked=0;connectable=1;container=0;" vertex="1" parent="1">
          <mxGeometry x="1310.5" y="1072" width="40" height="19.96" as="geometry" />
        </mxCell>
        <mxCell id="_x0-wylek2HW_SOhxotY-133" value="" style="endArrow=none;html=1;rounded=0;entryX=0.5;entryY=1;entryDx=0;entryDy=0;exitX=0;exitY=0.5;exitDx=0;exitDy=0;movable=1;resizable=1;rotatable=1;deletable=1;editable=1;locked=0;connectable=1;" edge="1" parent="1" source="_x0-wylek2HW_SOhxotY-132">
          <mxGeometry width="50" height="50" relative="1" as="geometry">
            <mxPoint x="1200.5" y="1122" as="sourcePoint" />
            <mxPoint x="1275.5" y="1082" as="targetPoint" />
          </mxGeometry>
        </mxCell>
        <mxCell id="_x0-wylek2HW_SOhxotY-134" value="" style="triangle;whiteSpace=wrap;html=1;rotation=-90;fillColor=#f5f5f5;gradientColor=#b3b3b3;strokeColor=#666666;movable=1;resizable=1;rotatable=1;deletable=1;editable=1;locked=0;connectable=1;container=0;" vertex="1" parent="1">
          <mxGeometry x="1063.5" y="1107" width="65" height="123.81" as="geometry" />
        </mxCell>
        <mxCell id="_x0-wylek2HW_SOhxotY-135" value="&lt;b&gt;time &amp;lt; 6&lt;/b&gt;" style="text;html=1;align=center;verticalAlign=middle;whiteSpace=wrap;rounded=0;movable=1;resizable=1;rotatable=1;deletable=1;editable=1;locked=0;connectable=1;container=0;" vertex="1" parent="1">
          <mxGeometry x="1068.5" y="1166" width="60" height="30" as="geometry" />
        </mxCell>
        <mxCell id="_x0-wylek2HW_SOhxotY-136" value="" style="endArrow=none;html=1;rounded=0;entryX=0.5;entryY=0;entryDx=0;entryDy=0;exitX=1;exitY=0.5;exitDx=0;exitDy=0;movable=1;resizable=1;rotatable=1;deletable=1;editable=1;locked=0;connectable=1;" edge="1" parent="1">
          <mxGeometry width="50" height="50" relative="1" as="geometry">
            <mxPoint x="1025.5" y="1173" as="sourcePoint" />
            <mxPoint x="1060.5" y="1173" as="targetPoint" />
          </mxGeometry>
        </mxCell>
        <mxCell id="_x0-wylek2HW_SOhxotY-147" style="edgeStyle=orthogonalEdgeStyle;rounded=0;orthogonalLoop=1;jettySize=auto;html=1;entryX=1;entryY=0.5;entryDx=0;entryDy=0;" edge="1" parent="1" source="_x0-wylek2HW_SOhxotY-137" target="_x0-wylek2HW_SOhxotY-141">
          <mxGeometry relative="1" as="geometry">
            <Array as="points">
              <mxPoint x="953.5" y="1173" />
              <mxPoint x="953.5" y="1196" />
              <mxPoint x="953.5" y="1196" />
            </Array>
          </mxGeometry>
        </mxCell>
        <mxCell id="_x0-wylek2HW_SOhxotY-137" value="True" style="rounded=0;whiteSpace=wrap;html=1;shadow=0;fillStyle=solid;fillColor=#60a917;strokeColor=#2D7600;fontColor=#ffffff;movable=1;resizable=1;rotatable=1;deletable=1;editable=1;locked=0;connectable=1;container=0;" vertex="1" parent="1">
          <mxGeometry x="985.5" y="1163" width="40" height="19.96" as="geometry" />
        </mxCell>
        <mxCell id="_x0-wylek2HW_SOhxotY-186" style="edgeStyle=orthogonalEdgeStyle;rounded=0;orthogonalLoop=1;jettySize=auto;html=1;" edge="1" parent="1" source="_x0-wylek2HW_SOhxotY-247">
          <mxGeometry relative="1" as="geometry">
            <mxPoint x="1897" y="1173" as="targetPoint" />
          </mxGeometry>
        </mxCell>
        <mxCell id="_x0-wylek2HW_SOhxotY-138" value="False" style="rounded=0;whiteSpace=wrap;html=1;shadow=0;fillStyle=solid;fillColor=#a20025;fontColor=#ffffff;strokeColor=#6F0000;movable=1;resizable=1;rotatable=1;deletable=1;editable=1;locked=0;connectable=1;container=0;" vertex="1" parent="1">
          <mxGeometry x="1165.5" y="1163" width="40" height="19.96" as="geometry" />
        </mxCell>
        <mxCell id="_x0-wylek2HW_SOhxotY-139" value="" style="endArrow=none;html=1;rounded=0;entryX=0.5;entryY=1;entryDx=0;entryDy=0;exitX=0;exitY=0.5;exitDx=0;exitDy=0;movable=1;resizable=1;rotatable=1;deletable=1;editable=1;locked=0;connectable=1;" edge="1" parent="1" source="_x0-wylek2HW_SOhxotY-138">
          <mxGeometry width="50" height="50" relative="1" as="geometry">
            <mxPoint x="1055.5" y="1213" as="sourcePoint" />
            <mxPoint x="1130.5" y="1173" as="targetPoint" />
          </mxGeometry>
        </mxCell>
        <mxCell id="_x0-wylek2HW_SOhxotY-141" value="" style="triangle;whiteSpace=wrap;html=1;rotation=-90;fillColor=#f5f5f5;gradientColor=#b3b3b3;strokeColor=#666666;movable=1;resizable=1;rotatable=1;deletable=1;editable=1;locked=0;connectable=1;container=0;" vertex="1" parent="1">
          <mxGeometry x="920.5" y="1187" width="65" height="123.81" as="geometry" />
        </mxCell>
        <mxCell id="_x0-wylek2HW_SOhxotY-143" value="" style="endArrow=none;html=1;rounded=0;entryX=0.5;entryY=0;entryDx=0;entryDy=0;exitX=1;exitY=0.5;exitDx=0;exitDy=0;movable=1;resizable=1;rotatable=1;deletable=1;editable=1;locked=0;connectable=1;" edge="1" parent="1">
          <mxGeometry width="50" height="50" relative="1" as="geometry">
            <mxPoint x="882.5" y="1253" as="sourcePoint" />
            <mxPoint x="917.5" y="1253" as="targetPoint" />
          </mxGeometry>
        </mxCell>
        <mxCell id="_x0-wylek2HW_SOhxotY-151" value="&lt;b style=&quot;line-height: 60%;&quot;&gt;&lt;font style=&quot;font-size: 8px; line-height: 60%;&quot;&gt;DoorPressed = 0&amp;nbsp;&lt;/font&gt;&lt;/b&gt;&lt;div style=&quot;line-height: 60%;&quot;&gt;&lt;b&gt;&lt;font style=&quot;font-size: 8px; line-height: 60%;&quot;&gt;and&amp;nbsp;&lt;/font&gt;&lt;/b&gt;&lt;/div&gt;&lt;div style=&quot;line-height: 60%;&quot;&gt;&lt;b&gt;&lt;font style=&quot;font-size: 8px; line-height: 60%;&quot;&gt;DOOR_SENSOR = 1&lt;/font&gt;&lt;/b&gt;&lt;/div&gt;" style="text;html=1;align=center;verticalAlign=middle;whiteSpace=wrap;rounded=0;movable=1;resizable=1;rotatable=1;deletable=1;editable=1;locked=0;connectable=1;container=0;" vertex="1" parent="1">
          <mxGeometry x="878.5" y="1248" width="153" height="30" as="geometry" />
        </mxCell>
        <mxCell id="_x0-wylek2HW_SOhxotY-159" style="edgeStyle=orthogonalEdgeStyle;rounded=0;orthogonalLoop=1;jettySize=auto;html=1;entryX=0;entryY=0.5;entryDx=0;entryDy=0;" edge="1" parent="1" source="_x0-wylek2HW_SOhxotY-155" target="_x0-wylek2HW_SOhxotY-158">
          <mxGeometry relative="1" as="geometry" />
        </mxCell>
        <mxCell id="_x0-wylek2HW_SOhxotY-155" value="True" style="rounded=0;whiteSpace=wrap;html=1;shadow=0;fillStyle=solid;fillColor=#60a917;strokeColor=#2D7600;fontColor=#ffffff;movable=1;resizable=1;rotatable=1;deletable=1;editable=1;locked=0;connectable=1;container=0;" vertex="1" parent="1">
          <mxGeometry x="1023.5" y="1245" width="40" height="19.96" as="geometry" />
        </mxCell>
        <mxCell id="_x0-wylek2HW_SOhxotY-156" value="" style="endArrow=none;html=1;rounded=0;entryX=0.5;entryY=0;entryDx=0;entryDy=0;exitX=1;exitY=0.5;exitDx=0;exitDy=0;movable=1;resizable=1;rotatable=1;deletable=1;editable=1;locked=0;connectable=1;" edge="1" parent="1">
          <mxGeometry width="50" height="50" relative="1" as="geometry">
            <mxPoint x="988" y="1253" as="sourcePoint" />
            <mxPoint x="1023" y="1253" as="targetPoint" />
          </mxGeometry>
        </mxCell>
        <mxCell id="_x0-wylek2HW_SOhxotY-194" style="edgeStyle=orthogonalEdgeStyle;rounded=0;orthogonalLoop=1;jettySize=auto;html=1;entryX=1;entryY=0.5;entryDx=0;entryDy=0;" edge="1" parent="1" source="_x0-wylek2HW_SOhxotY-157" target="_x0-wylek2HW_SOhxotY-188">
          <mxGeometry relative="1" as="geometry">
            <Array as="points">
              <mxPoint x="810.5" y="1254" />
              <mxPoint x="810.5" y="1296" />
            </Array>
          </mxGeometry>
        </mxCell>
        <mxCell id="_x0-wylek2HW_SOhxotY-157" value="False" style="rounded=0;whiteSpace=wrap;html=1;shadow=0;fillStyle=solid;fillColor=#a20025;fontColor=#ffffff;strokeColor=#6F0000;movable=1;resizable=1;rotatable=1;deletable=1;editable=1;locked=0;connectable=1;container=0;" vertex="1" parent="1">
          <mxGeometry x="842.5" y="1244" width="40" height="19.96" as="geometry" />
        </mxCell>
        <mxCell id="_x0-wylek2HW_SOhxotY-170" style="edgeStyle=orthogonalEdgeStyle;rounded=0;orthogonalLoop=1;jettySize=auto;html=1;" edge="1" parent="1" source="_x0-wylek2HW_SOhxotY-158">
          <mxGeometry relative="1" as="geometry">
            <mxPoint x="1897" y="1255" as="targetPoint" />
          </mxGeometry>
        </mxCell>
        <mxCell id="_x0-wylek2HW_SOhxotY-158" value="&lt;b&gt;DoorPressed = 1&amp;nbsp;&lt;/b&gt;" style="rounded=0;whiteSpace=wrap;html=1;fillColor=#ffe6cc;strokeColor=#d79b00;movable=1;resizable=1;rotatable=1;deletable=1;editable=1;locked=0;connectable=1;container=0;" vertex="1" parent="1">
          <mxGeometry x="1107.5" y="1244.96" width="110" height="20" as="geometry" />
        </mxCell>
        <mxCell id="_x0-wylek2HW_SOhxotY-169" style="edgeStyle=orthogonalEdgeStyle;rounded=0;orthogonalLoop=1;jettySize=auto;html=1;" edge="1" parent="1" source="_x0-wylek2HW_SOhxotY-166">
          <mxGeometry relative="1" as="geometry">
            <mxPoint x="520" y="938" as="targetPoint" />
          </mxGeometry>
        </mxCell>
        <mxCell id="_x0-wylek2HW_SOhxotY-166" value="&lt;b&gt;DoorPressed = 0&lt;/b&gt;" style="rounded=0;whiteSpace=wrap;html=1;fillColor=#ffe6cc;strokeColor=#d79b00;movable=1;resizable=1;rotatable=1;deletable=1;editable=1;locked=0;connectable=1;container=0;" vertex="1" parent="1">
          <mxGeometry x="465" y="1143" width="110" height="20" as="geometry" />
        </mxCell>
        <mxCell id="_x0-wylek2HW_SOhxotY-184" style="edgeStyle=orthogonalEdgeStyle;rounded=0;orthogonalLoop=1;jettySize=auto;html=1;" edge="1" parent="1" source="_x0-wylek2HW_SOhxotY-171">
          <mxGeometry relative="1" as="geometry">
            <mxPoint x="1234" y="620" as="targetPoint" />
          </mxGeometry>
        </mxCell>
        <mxCell id="_x0-wylek2HW_SOhxotY-171" value="&lt;b&gt;DoorPressed = 0&lt;/b&gt;" style="rounded=0;whiteSpace=wrap;html=1;fillColor=#ffe6cc;strokeColor=#d79b00;movable=1;resizable=1;rotatable=1;deletable=1;editable=1;locked=0;connectable=1;container=0;" vertex="1" parent="1">
          <mxGeometry x="1179" y="508.9999999999999" width="110" height="20" as="geometry" />
        </mxCell>
        <mxCell id="_x0-wylek2HW_SOhxotY-172" value="" style="triangle;whiteSpace=wrap;html=1;rotation=-90;fillColor=#fad9d5;strokeColor=#ae4132;movable=1;resizable=1;rotatable=1;deletable=1;editable=1;locked=0;connectable=1;container=0;" vertex="1" parent="1">
          <mxGeometry x="996.5" y="333" width="105" height="200" as="geometry" />
        </mxCell>
        <mxCell id="_x0-wylek2HW_SOhxotY-173" value="&lt;b&gt;If&amp;nbsp;&lt;/b&gt;&lt;div&gt;&lt;div&gt;&lt;b&gt;DOOR_SENSOR&lt;/b&gt;&lt;/div&gt;&lt;/div&gt;&lt;div&gt;&lt;b&gt;= 1&lt;/b&gt;&lt;/div&gt;" style="text;html=1;align=center;verticalAlign=middle;whiteSpace=wrap;rounded=0;movable=1;resizable=1;rotatable=1;deletable=1;editable=1;locked=0;connectable=1;container=0;" vertex="1" parent="1">
          <mxGeometry x="999" y="424" width="106" height="50" as="geometry" />
        </mxCell>
        <mxCell id="_x0-wylek2HW_SOhxotY-179" style="edgeStyle=orthogonalEdgeStyle;rounded=0;orthogonalLoop=1;jettySize=auto;html=1;entryX=0.5;entryY=0;entryDx=0;entryDy=0;" edge="1" parent="1" source="_x0-wylek2HW_SOhxotY-174" target="_x0-wylek2HW_SOhxotY-178">
          <mxGeometry relative="1" as="geometry" />
        </mxCell>
        <mxCell id="_x0-wylek2HW_SOhxotY-174" value="True" style="rounded=0;whiteSpace=wrap;html=1;shadow=0;fillStyle=solid;fillColor=#60a917;strokeColor=#2D7600;fontColor=#ffffff;movable=1;resizable=1;rotatable=1;deletable=1;editable=1;locked=0;connectable=1;container=0;" vertex="1" parent="1">
          <mxGeometry x="924" y="423" width="40" height="19.96" as="geometry" />
        </mxCell>
        <mxCell id="_x0-wylek2HW_SOhxotY-175" value="" style="endArrow=none;html=1;rounded=0;entryX=0.5;entryY=0;entryDx=0;entryDy=0;exitX=1;exitY=0.5;exitDx=0;exitDy=0;movable=1;resizable=1;rotatable=1;deletable=1;editable=1;locked=0;connectable=1;" edge="1" parent="1" source="_x0-wylek2HW_SOhxotY-174" target="_x0-wylek2HW_SOhxotY-172">
          <mxGeometry width="50" height="50" relative="1" as="geometry">
            <mxPoint x="924" y="493" as="sourcePoint" />
            <mxPoint x="974" y="443" as="targetPoint" />
          </mxGeometry>
        </mxCell>
        <mxCell id="_x0-wylek2HW_SOhxotY-182" style="edgeStyle=orthogonalEdgeStyle;rounded=0;orthogonalLoop=1;jettySize=auto;html=1;entryX=0.5;entryY=0;entryDx=0;entryDy=0;" edge="1" parent="1" source="_x0-wylek2HW_SOhxotY-176" target="_x0-wylek2HW_SOhxotY-171">
          <mxGeometry relative="1" as="geometry" />
        </mxCell>
        <mxCell id="_x0-wylek2HW_SOhxotY-176" value="False" style="rounded=0;whiteSpace=wrap;html=1;shadow=0;fillStyle=solid;fillColor=#a20025;fontColor=#ffffff;strokeColor=#6F0000;movable=1;resizable=1;rotatable=1;deletable=1;editable=1;locked=0;connectable=1;container=0;" vertex="1" parent="1">
          <mxGeometry x="1134" y="423" width="40" height="19.96" as="geometry" />
        </mxCell>
        <mxCell id="_x0-wylek2HW_SOhxotY-177" value="" style="endArrow=none;html=1;rounded=0;entryX=0.5;entryY=1;entryDx=0;entryDy=0;exitX=0;exitY=0.5;exitDx=0;exitDy=0;movable=1;resizable=1;rotatable=1;deletable=1;editable=1;locked=0;connectable=1;" edge="1" parent="1" source="_x0-wylek2HW_SOhxotY-176" target="_x0-wylek2HW_SOhxotY-172">
          <mxGeometry width="50" height="50" relative="1" as="geometry">
            <mxPoint x="1024" y="473" as="sourcePoint" />
            <mxPoint x="1074" y="423" as="targetPoint" />
          </mxGeometry>
        </mxCell>
        <mxCell id="_x0-wylek2HW_SOhxotY-180" style="edgeStyle=orthogonalEdgeStyle;rounded=0;orthogonalLoop=1;jettySize=auto;html=1;entryX=1;entryY=0.5;entryDx=0;entryDy=0;" edge="1" parent="1" source="_x0-wylek2HW_SOhxotY-178" target="zBTAGkf1-Lc7cg8zBFCE-23">
          <mxGeometry relative="1" as="geometry" />
        </mxCell>
        <mxCell id="_x0-wylek2HW_SOhxotY-178" value="&lt;b&gt;DoorPressed = 1&amp;nbsp;&lt;/b&gt;" style="rounded=0;whiteSpace=wrap;html=1;fillColor=#ffe6cc;strokeColor=#d79b00;movable=1;resizable=1;rotatable=1;deletable=1;editable=1;locked=0;connectable=1;container=0;" vertex="1" parent="1">
          <mxGeometry x="796" y="506.9999999999999" width="110" height="20" as="geometry" />
        </mxCell>
        <mxCell id="_x0-wylek2HW_SOhxotY-188" value="" style="triangle;whiteSpace=wrap;html=1;rotation=-90;fillColor=#f5f5f5;gradientColor=#b3b3b3;strokeColor=#666666;movable=1;resizable=1;rotatable=1;deletable=1;editable=1;locked=0;connectable=1;container=0;" vertex="1" parent="1">
          <mxGeometry x="777.5" y="1299" width="65" height="123.81" as="geometry" />
        </mxCell>
        <mxCell id="_x0-wylek2HW_SOhxotY-189" value="" style="endArrow=none;html=1;rounded=0;entryX=0.5;entryY=0;entryDx=0;entryDy=0;exitX=1;exitY=0.5;exitDx=0;exitDy=0;movable=1;resizable=1;rotatable=1;deletable=1;editable=1;locked=0;connectable=1;" edge="1" parent="1">
          <mxGeometry width="50" height="50" relative="1" as="geometry">
            <mxPoint x="739.5" y="1365" as="sourcePoint" />
            <mxPoint x="774.5" y="1365" as="targetPoint" />
          </mxGeometry>
        </mxCell>
        <mxCell id="_x0-wylek2HW_SOhxotY-190" value="&lt;b style=&quot;line-height: 60%;&quot;&gt;&lt;font style=&quot;font-size: 8px; line-height: 60%;&quot;&gt;DoorPressed = 1&amp;nbsp;&lt;/font&gt;&lt;/b&gt;&lt;div style=&quot;line-height: 60%;&quot;&gt;&lt;b&gt;&lt;font style=&quot;font-size: 8px; line-height: 60%;&quot;&gt;and&amp;nbsp;&lt;/font&gt;&lt;/b&gt;&lt;/div&gt;&lt;div style=&quot;line-height: 60%;&quot;&gt;&lt;b&gt;&lt;font style=&quot;font-size: 8px; line-height: 60%;&quot;&gt;DOOR_SENSOR = 0&lt;/font&gt;&lt;/b&gt;&lt;/div&gt;" style="text;html=1;align=center;verticalAlign=middle;whiteSpace=wrap;rounded=0;movable=1;resizable=1;rotatable=1;deletable=1;editable=1;locked=0;connectable=1;container=0;" vertex="1" parent="1">
          <mxGeometry x="735.5" y="1360" width="153" height="30" as="geometry" />
        </mxCell>
        <mxCell id="_x0-wylek2HW_SOhxotY-197" value="" style="endArrow=none;html=1;rounded=0;entryX=0.5;entryY=0;entryDx=0;entryDy=0;exitX=1;exitY=0.5;exitDx=0;exitDy=0;movable=1;resizable=1;rotatable=1;deletable=1;editable=1;locked=0;connectable=1;" edge="1" parent="1">
          <mxGeometry width="50" height="50" relative="1" as="geometry">
            <mxPoint x="740" y="1365" as="sourcePoint" />
            <mxPoint x="775" y="1365" as="targetPoint" />
          </mxGeometry>
        </mxCell>
        <mxCell id="_x0-wylek2HW_SOhxotY-225" style="edgeStyle=orthogonalEdgeStyle;rounded=0;orthogonalLoop=1;jettySize=auto;html=1;entryX=0.5;entryY=0;entryDx=0;entryDy=0;" edge="1" parent="1" source="_x0-wylek2HW_SOhxotY-198" target="_x0-wylek2HW_SOhxotY-201">
          <mxGeometry relative="1" as="geometry">
            <Array as="points">
              <mxPoint x="687" y="1365" />
            </Array>
          </mxGeometry>
        </mxCell>
        <mxCell id="_x0-wylek2HW_SOhxotY-198" value="True" style="rounded=0;whiteSpace=wrap;html=1;shadow=0;fillStyle=solid;fillColor=#60a917;strokeColor=#2D7600;fontColor=#ffffff;movable=1;resizable=1;rotatable=1;deletable=1;editable=1;locked=0;connectable=1;container=0;" vertex="1" parent="1">
          <mxGeometry x="700" y="1355" width="40" height="19.96" as="geometry" />
        </mxCell>
        <mxCell id="_x0-wylek2HW_SOhxotY-234" style="edgeStyle=orthogonalEdgeStyle;rounded=0;orthogonalLoop=1;jettySize=auto;html=1;entryX=1;entryY=0.5;entryDx=0;entryDy=0;" edge="1" parent="1" source="_x0-wylek2HW_SOhxotY-199" target="_x0-wylek2HW_SOhxotY-227">
          <mxGeometry relative="1" as="geometry" />
        </mxCell>
        <mxCell id="_x0-wylek2HW_SOhxotY-199" value="False" style="rounded=0;whiteSpace=wrap;html=1;shadow=0;fillStyle=solid;fillColor=#a20025;fontColor=#ffffff;strokeColor=#6F0000;movable=1;resizable=1;rotatable=1;deletable=1;editable=1;locked=0;connectable=1;container=0;" vertex="1" parent="1">
          <mxGeometry x="880" y="1355" width="40" height="19.96" as="geometry" />
        </mxCell>
        <mxCell id="_x0-wylek2HW_SOhxotY-200" value="" style="endArrow=none;html=1;rounded=0;entryX=0.5;entryY=1;entryDx=0;entryDy=0;exitX=0;exitY=0.5;exitDx=0;exitDy=0;movable=1;resizable=1;rotatable=1;deletable=1;editable=1;locked=0;connectable=1;" edge="1" parent="1" source="_x0-wylek2HW_SOhxotY-199">
          <mxGeometry width="50" height="50" relative="1" as="geometry">
            <mxPoint x="770" y="1405" as="sourcePoint" />
            <mxPoint x="845" y="1365" as="targetPoint" />
          </mxGeometry>
        </mxCell>
        <mxCell id="_x0-wylek2HW_SOhxotY-226" style="edgeStyle=orthogonalEdgeStyle;rounded=0;orthogonalLoop=1;jettySize=auto;html=1;entryX=0.5;entryY=0;entryDx=0;entryDy=0;" edge="1" parent="1" source="_x0-wylek2HW_SOhxotY-201" target="_x0-wylek2HW_SOhxotY-202">
          <mxGeometry relative="1" as="geometry" />
        </mxCell>
        <mxCell id="_x0-wylek2HW_SOhxotY-201" value="&lt;b&gt;doorState = 0&lt;/b&gt;" style="rounded=0;whiteSpace=wrap;html=1;fillColor=#ffe6cc;strokeColor=#d79b00;movable=1;resizable=1;rotatable=1;deletable=1;editable=1;locked=0;connectable=1;container=0;" vertex="1" parent="1">
          <mxGeometry x="632" y="1410" width="110" height="20" as="geometry" />
        </mxCell>
        <mxCell id="_x0-wylek2HW_SOhxotY-235" style="edgeStyle=orthogonalEdgeStyle;rounded=0;orthogonalLoop=1;jettySize=auto;html=1;" edge="1" parent="1" source="_x0-wylek2HW_SOhxotY-202">
          <mxGeometry relative="1" as="geometry">
            <mxPoint x="1072" y="1465" as="targetPoint" />
          </mxGeometry>
        </mxCell>
        <mxCell id="_x0-wylek2HW_SOhxotY-202" value="&lt;b&gt;DoorPressed = 0&lt;/b&gt;" style="rounded=0;whiteSpace=wrap;html=1;fillColor=#ffe6cc;strokeColor=#d79b00;movable=1;resizable=1;rotatable=1;deletable=1;editable=1;locked=0;connectable=1;container=0;" vertex="1" parent="1">
          <mxGeometry x="632" y="1456" width="110" height="20" as="geometry" />
        </mxCell>
        <mxCell id="_x0-wylek2HW_SOhxotY-203" value="" style="triangle;whiteSpace=wrap;html=1;rotation=-90;fillColor=#f5f5f5;gradientColor=#b3b3b3;strokeColor=#666666;movable=1;resizable=1;rotatable=1;deletable=1;editable=1;locked=0;connectable=1;container=0;" vertex="1" parent="1">
          <mxGeometry x="223.76999999999995" y="1377" width="65" height="123.81" as="geometry" />
        </mxCell>
        <mxCell id="_x0-wylek2HW_SOhxotY-205" value="" style="endArrow=none;html=1;rounded=0;exitX=0.5;exitY=0;exitDx=0;exitDy=0;entryX=1;entryY=0.5;entryDx=0;entryDy=0;movable=1;resizable=1;rotatable=1;deletable=1;editable=1;locked=0;connectable=1;" edge="1" parent="1" source="_x0-wylek2HW_SOhxotY-203">
          <mxGeometry width="50" height="50" relative="1" as="geometry">
            <mxPoint x="353.77" y="1490.81" as="sourcePoint" />
            <mxPoint x="193.76999999999995" y="1438.9099999999999" as="targetPoint" />
          </mxGeometry>
        </mxCell>
        <mxCell id="_x0-wylek2HW_SOhxotY-206" value="" style="endArrow=none;html=1;rounded=0;exitX=0.5;exitY=0;exitDx=0;exitDy=0;entryX=1;entryY=0.5;entryDx=0;entryDy=0;movable=1;resizable=1;rotatable=1;deletable=1;editable=1;locked=0;connectable=1;" edge="1" parent="1">
          <mxGeometry width="50" height="50" relative="1" as="geometry">
            <mxPoint x="317.77" y="1438.09" as="sourcePoint" />
            <mxPoint x="285.77" y="1437.9999999999998" as="targetPoint" />
          </mxGeometry>
        </mxCell>
        <mxCell id="_x0-wylek2HW_SOhxotY-211" style="edgeStyle=orthogonalEdgeStyle;rounded=0;orthogonalLoop=1;jettySize=auto;html=1;" edge="1" parent="1" source="_x0-wylek2HW_SOhxotY-207">
          <mxGeometry relative="1" as="geometry">
            <mxPoint x="593" y="938" as="targetPoint" />
          </mxGeometry>
        </mxCell>
        <mxCell id="_x0-wylek2HW_SOhxotY-207" value="True" style="rounded=0;whiteSpace=wrap;html=1;shadow=0;fillStyle=solid;fillColor=#60a917;fontColor=#ffffff;strokeColor=#2D7600;movable=1;resizable=1;rotatable=1;deletable=1;editable=1;locked=0;connectable=1;container=0;" vertex="1" parent="1">
          <mxGeometry x="316.31999999999994" y="1427.9999999999998" width="40" height="19.96" as="geometry" />
        </mxCell>
        <mxCell id="_x0-wylek2HW_SOhxotY-213" style="edgeStyle=orthogonalEdgeStyle;rounded=0;orthogonalLoop=1;jettySize=auto;html=1;" edge="1" parent="1" source="_x0-wylek2HW_SOhxotY-208">
          <mxGeometry relative="1" as="geometry">
            <mxPoint x="371" y="866" as="targetPoint" />
            <Array as="points">
              <mxPoint x="53" y="1439" />
              <mxPoint x="53" y="866" />
            </Array>
          </mxGeometry>
        </mxCell>
        <mxCell id="_x0-wylek2HW_SOhxotY-208" value="False" style="rounded=0;whiteSpace=wrap;html=1;shadow=0;fillStyle=solid;fillColor=#a20025;fontColor=#ffffff;strokeColor=#6F0000;movable=1;resizable=1;rotatable=1;deletable=1;editable=1;locked=0;connectable=1;container=0;" vertex="1" parent="1">
          <mxGeometry x="154.76999999999995" y="1428.92" width="40" height="19.96" as="geometry" />
        </mxCell>
        <mxCell id="_x0-wylek2HW_SOhxotY-210" value="&lt;span style=&quot;font-size: 10px;&quot;&gt;&lt;b&gt;KLEM15&lt;/b&gt;&lt;/span&gt;&lt;div&gt;&lt;span style=&quot;font-size: 10px;&quot;&gt;&lt;b&gt;= 0&lt;/b&gt;&lt;/span&gt;&lt;/div&gt;" style="text;html=1;align=center;verticalAlign=middle;whiteSpace=wrap;rounded=0;movable=1;resizable=1;rotatable=1;deletable=1;editable=1;locked=0;connectable=1;container=0;" vertex="1" parent="1">
          <mxGeometry x="199" y="1435" width="119" height="30" as="geometry" />
        </mxCell>
        <mxCell id="_x0-wylek2HW_SOhxotY-222" value="" style="edgeStyle=orthogonalEdgeStyle;rounded=0;orthogonalLoop=1;jettySize=auto;html=1;entryX=0.5;entryY=0;entryDx=0;entryDy=0;" edge="1" parent="1" source="zBTAGkf1-Lc7cg8zBFCE-43" target="_x0-wylek2HW_SOhxotY-221">
          <mxGeometry relative="1" as="geometry">
            <mxPoint x="976" y="621" as="sourcePoint" />
            <mxPoint x="1392" y="824" as="targetPoint" />
          </mxGeometry>
        </mxCell>
        <mxCell id="_x0-wylek2HW_SOhxotY-221" value="&lt;b&gt;doorState = 0&lt;/b&gt;" style="rounded=0;whiteSpace=wrap;html=1;fillColor=#ffe6cc;strokeColor=#d79b00;movable=1;resizable=1;rotatable=1;deletable=1;editable=1;locked=0;connectable=1;container=0;" vertex="1" parent="1">
          <mxGeometry x="1338" y="664.9999999999999" width="110" height="20" as="geometry" />
        </mxCell>
        <mxCell id="_x0-wylek2HW_SOhxotY-224" value="" style="endArrow=classic;html=1;rounded=0;exitX=1;exitY=0.5;exitDx=0;exitDy=0;" edge="1" parent="1" source="zBTAGkf1-Lc7cg8zBFCE-46" target="_x0-wylek2HW_SOhxotY-223">
          <mxGeometry width="50" height="50" relative="1" as="geometry">
            <mxPoint x="481" y="929" as="sourcePoint" />
            <mxPoint x="1391" y="784" as="targetPoint" />
            <Array as="points" />
          </mxGeometry>
        </mxCell>
        <mxCell id="_x0-wylek2HW_SOhxotY-223" value="&lt;b&gt;doorState = 1&amp;nbsp;&lt;/b&gt;" style="rounded=0;whiteSpace=wrap;html=1;fillColor=#ffe6cc;strokeColor=#d79b00;movable=1;resizable=1;rotatable=1;deletable=1;editable=1;locked=0;connectable=1;container=0;" vertex="1" parent="1">
          <mxGeometry x="661" y="917.9999999999999" width="110" height="20" as="geometry" />
        </mxCell>
        <mxCell id="_x0-wylek2HW_SOhxotY-227" value="" style="triangle;whiteSpace=wrap;html=1;rotation=-90;fillColor=#f5f5f5;gradientColor=#b3b3b3;strokeColor=#666666;movable=1;resizable=1;rotatable=1;deletable=1;editable=1;locked=0;connectable=1;container=0;" vertex="1" parent="1">
          <mxGeometry x="1043.5" y="1491" width="65" height="123.81" as="geometry" />
        </mxCell>
        <mxCell id="_x0-wylek2HW_SOhxotY-228" value="" style="endArrow=none;html=1;rounded=0;entryX=0.5;entryY=0;entryDx=0;entryDy=0;exitX=1;exitY=0.5;exitDx=0;exitDy=0;movable=1;resizable=1;rotatable=1;deletable=1;editable=1;locked=0;connectable=1;" edge="1" parent="1">
          <mxGeometry width="50" height="50" relative="1" as="geometry">
            <mxPoint x="1005.5" y="1557" as="sourcePoint" />
            <mxPoint x="1040.5" y="1557" as="targetPoint" />
          </mxGeometry>
        </mxCell>
        <mxCell id="_x0-wylek2HW_SOhxotY-229" value="&lt;b style=&quot;line-height: 80%;&quot;&gt;&lt;font style=&quot;font-size: 10px;&quot;&gt;If&amp;nbsp;&lt;br&gt;&lt;/font&gt;&lt;/b&gt;&lt;div style=&quot;line-height: 80%;&quot;&gt;&lt;b style=&quot;background-color: initial;&quot;&gt;&lt;font style=&quot;font-size: 10px;&quot;&gt;KLEM15&amp;nbsp;&lt;/font&gt;&lt;/b&gt;&lt;/div&gt;&lt;div style=&quot;line-height: 80%;&quot;&gt;&lt;b&gt;&lt;font style=&quot;font-size: 10px;&quot;&gt;KLEM30&amp;nbsp;&lt;/font&gt;&lt;/b&gt;&lt;div&gt;&lt;b&gt;&lt;font style=&quot;font-size: 10px;&quot;&gt;or&lt;/font&gt;&lt;/b&gt;&lt;/div&gt;&lt;div&gt;&lt;b&gt;&lt;font style=&quot;font-size: 10px;&quot;&gt;&amp;nbsp;BELT_SENSOR = 0&lt;/font&gt;&lt;/b&gt;&lt;/div&gt;&lt;/div&gt;" style="text;html=1;align=center;verticalAlign=middle;whiteSpace=wrap;rounded=0;movable=1;resizable=1;rotatable=1;deletable=1;editable=1;locked=0;connectable=1;container=0;" vertex="1" parent="1">
          <mxGeometry x="1002" y="1541.98" width="153" height="30" as="geometry" />
        </mxCell>
        <mxCell id="_x0-wylek2HW_SOhxotY-230" value="" style="endArrow=none;html=1;rounded=0;entryX=0.5;entryY=0;entryDx=0;entryDy=0;exitX=1;exitY=0.5;exitDx=0;exitDy=0;movable=1;resizable=1;rotatable=1;deletable=1;editable=1;locked=0;connectable=1;" edge="1" parent="1">
          <mxGeometry width="50" height="50" relative="1" as="geometry">
            <mxPoint x="1006" y="1557" as="sourcePoint" />
            <mxPoint x="1041" y="1557" as="targetPoint" />
          </mxGeometry>
        </mxCell>
        <mxCell id="_x0-wylek2HW_SOhxotY-233" value="" style="endArrow=none;html=1;rounded=0;entryX=0.5;entryY=1;entryDx=0;entryDy=0;exitX=0;exitY=0.5;exitDx=0;exitDy=0;movable=1;resizable=1;rotatable=1;deletable=1;editable=1;locked=0;connectable=1;" edge="1" parent="1">
          <mxGeometry width="50" height="50" relative="1" as="geometry">
            <mxPoint x="1146" y="1556.9800000000002" as="sourcePoint" />
            <mxPoint x="1111" y="1557" as="targetPoint" />
          </mxGeometry>
        </mxCell>
        <mxCell id="_x0-wylek2HW_SOhxotY-240" style="edgeStyle=orthogonalEdgeStyle;rounded=0;orthogonalLoop=1;jettySize=auto;html=1;entryX=0.5;entryY=0;entryDx=0;entryDy=0;" edge="1" parent="1" source="_x0-wylek2HW_SOhxotY-236" target="_x0-wylek2HW_SOhxotY-238">
          <mxGeometry relative="1" as="geometry">
            <Array as="points">
              <mxPoint x="1203" y="1559" />
            </Array>
          </mxGeometry>
        </mxCell>
        <mxCell id="_x0-wylek2HW_SOhxotY-236" value="True" style="rounded=0;whiteSpace=wrap;html=1;shadow=0;fillStyle=solid;fillColor=#60a917;strokeColor=#2D7600;fontColor=#ffffff;movable=1;resizable=1;rotatable=1;deletable=1;editable=1;locked=0;connectable=1;container=0;" vertex="1" parent="1">
          <mxGeometry x="1146.5" y="1549" width="40" height="19.96" as="geometry" />
        </mxCell>
        <mxCell id="_x0-wylek2HW_SOhxotY-243" style="edgeStyle=orthogonalEdgeStyle;rounded=0;orthogonalLoop=1;jettySize=auto;html=1;entryX=0.5;entryY=0;entryDx=0;entryDy=0;" edge="1" parent="1" source="_x0-wylek2HW_SOhxotY-237" target="zBTAGkf1-Lc7cg8zBFCE-111">
          <mxGeometry relative="1" as="geometry">
            <Array as="points">
              <mxPoint x="940" y="1558" />
            </Array>
          </mxGeometry>
        </mxCell>
        <mxCell id="_x0-wylek2HW_SOhxotY-237" value="False" style="rounded=0;whiteSpace=wrap;html=1;shadow=0;fillStyle=solid;fillColor=#a20025;fontColor=#ffffff;strokeColor=#6F0000;movable=1;resizable=1;rotatable=1;deletable=1;editable=1;locked=0;connectable=1;container=0;" vertex="1" parent="1">
          <mxGeometry x="965.5" y="1548" width="40" height="19.96" as="geometry" />
        </mxCell>
        <mxCell id="_x0-wylek2HW_SOhxotY-241" style="edgeStyle=orthogonalEdgeStyle;rounded=0;orthogonalLoop=1;jettySize=auto;html=1;entryX=0.5;entryY=0;entryDx=0;entryDy=0;" edge="1" parent="1" source="_x0-wylek2HW_SOhxotY-238" target="_x0-wylek2HW_SOhxotY-239">
          <mxGeometry relative="1" as="geometry" />
        </mxCell>
        <mxCell id="_x0-wylek2HW_SOhxotY-238" value="&lt;b&gt;Lamp_airb OFF&lt;/b&gt;" style="rounded=0;whiteSpace=wrap;html=1;fillColor=#e6d0de;strokeColor=#996185;gradientColor=#d5739d;movable=1;resizable=1;rotatable=1;deletable=1;editable=1;locked=0;connectable=1;container=0;" vertex="1" parent="1">
          <mxGeometry x="1148" y="1605" width="110" height="20" as="geometry" />
        </mxCell>
        <mxCell id="_x0-wylek2HW_SOhxotY-242" style="edgeStyle=orthogonalEdgeStyle;rounded=0;orthogonalLoop=1;jettySize=auto;html=1;" edge="1" parent="1" source="_x0-wylek2HW_SOhxotY-239">
          <mxGeometry relative="1" as="geometry">
            <mxPoint x="1901" y="1329" as="targetPoint" />
            <Array as="points">
              <mxPoint x="1329" y="1662" />
              <mxPoint x="1329" y="1329" />
            </Array>
          </mxGeometry>
        </mxCell>
        <mxCell id="_x0-wylek2HW_SOhxotY-239" value="&lt;b&gt;beltState = 0&lt;/b&gt;" style="rounded=0;whiteSpace=wrap;html=1;fillColor=#ffe6cc;strokeColor=#d79b00;movable=1;resizable=1;rotatable=1;deletable=1;editable=1;locked=0;connectable=1;container=0;" vertex="1" parent="1">
          <mxGeometry x="1148" y="1652" width="110" height="20" as="geometry" />
        </mxCell>
        <mxCell id="_x0-wylek2HW_SOhxotY-245" value="" style="endArrow=classic;html=1;rounded=0;exitX=0.5;exitY=1;exitDx=0;exitDy=0;entryX=0.5;entryY=0;entryDx=0;entryDy=0;movable=1;resizable=1;rotatable=1;deletable=1;editable=1;locked=0;connectable=1;" edge="1" parent="1" source="zBTAGkf1-Lc7cg8zBFCE-79" target="_x0-wylek2HW_SOhxotY-244">
          <mxGeometry width="50" height="50" relative="1" as="geometry">
            <mxPoint x="940" y="1696" as="sourcePoint" />
            <mxPoint x="940" y="1793" as="targetPoint" />
          </mxGeometry>
        </mxCell>
        <mxCell id="_x0-wylek2HW_SOhxotY-244" value="&lt;b&gt;Lamp_airb ON&lt;/b&gt;" style="rounded=0;whiteSpace=wrap;html=1;fillColor=#e6d0de;strokeColor=#996185;gradientColor=#d5739d;movable=1;resizable=1;rotatable=1;deletable=1;editable=1;locked=0;connectable=1;container=0;" vertex="1" parent="1">
          <mxGeometry x="885" y="1713.12" width="110" height="20" as="geometry" />
        </mxCell>
        <mxCell id="_x0-wylek2HW_SOhxotY-248" value="" style="edgeStyle=orthogonalEdgeStyle;rounded=0;orthogonalLoop=1;jettySize=auto;html=1;" edge="1" parent="1" source="_x0-wylek2HW_SOhxotY-138" target="_x0-wylek2HW_SOhxotY-247">
          <mxGeometry relative="1" as="geometry">
            <mxPoint x="2140" y="1172.98" as="targetPoint" />
            <mxPoint x="1206" y="1173" as="sourcePoint" />
          </mxGeometry>
        </mxCell>
        <mxCell id="_x0-wylek2HW_SOhxotY-247" value="&lt;b&gt;beltState = 1&lt;/b&gt;" style="rounded=0;whiteSpace=wrap;html=1;fillColor=#ffe6cc;strokeColor=#d79b00;movable=1;resizable=1;rotatable=1;deletable=1;editable=1;locked=0;connectable=1;container=0;" vertex="1" parent="1">
          <mxGeometry x="1515" y="1162.96" width="110" height="20" as="geometry" />
        </mxCell>
        <mxCell id="_x0-wylek2HW_SOhxotY-250" value="" style="endArrow=classic;html=1;rounded=0;exitX=1;exitY=0.5;exitDx=0;exitDy=0;movable=1;resizable=1;rotatable=1;deletable=1;editable=1;locked=0;connectable=1;" edge="1" parent="1" source="zBTAGkf1-Lc7cg8zBFCE-67" target="_x0-wylek2HW_SOhxotY-249">
          <mxGeometry width="50" height="50" relative="1" as="geometry">
            <mxPoint x="1518" y="981" as="sourcePoint" />
            <mxPoint x="2146" y="1518" as="targetPoint" />
            <Array as="points" />
          </mxGeometry>
        </mxCell>
        <mxCell id="_x0-wylek2HW_SOhxotY-249" value="&lt;b&gt;beltState = 0&lt;/b&gt;" style="rounded=0;whiteSpace=wrap;html=1;fillColor=#ffe6cc;strokeColor=#d79b00;movable=1;resizable=1;rotatable=1;deletable=1;editable=1;locked=0;connectable=1;container=0;" vertex="1" parent="1">
          <mxGeometry x="1595" y="970" width="110" height="20" as="geometry" />
        </mxCell>
        <mxCell id="_x0-wylek2HW_SOhxotY-258" value="" style="triangle;whiteSpace=wrap;html=1;rotation=-90;fillColor=#f5f5f5;gradientColor=#b3b3b3;strokeColor=#666666;movable=1;resizable=1;rotatable=1;deletable=1;editable=1;locked=0;connectable=1;container=0;" vertex="1" parent="1">
          <mxGeometry x="1729" y="1659" width="65" height="123.81" as="geometry" />
        </mxCell>
        <mxCell id="_x0-wylek2HW_SOhxotY-259" value="&lt;b&gt;lightState = 0&lt;/b&gt;" style="text;html=1;align=center;verticalAlign=middle;whiteSpace=wrap;rounded=0;movable=1;resizable=1;rotatable=1;deletable=1;editable=1;locked=0;connectable=1;container=0;" vertex="1" parent="1">
          <mxGeometry x="1734" y="1722" width="60" height="30" as="geometry" />
        </mxCell>
        <mxCell id="_x0-wylek2HW_SOhxotY-260" value="" style="endArrow=none;html=1;rounded=0;entryX=0.5;entryY=0;entryDx=0;entryDy=0;exitX=1;exitY=0.5;exitDx=0;exitDy=0;movable=1;resizable=1;rotatable=1;deletable=1;editable=1;locked=0;connectable=1;" edge="1" parent="1">
          <mxGeometry width="50" height="50" relative="1" as="geometry">
            <mxPoint x="1691" y="1725" as="sourcePoint" />
            <mxPoint x="1726" y="1725" as="targetPoint" />
          </mxGeometry>
        </mxCell>
        <mxCell id="_x0-wylek2HW_SOhxotY-264" style="edgeStyle=orthogonalEdgeStyle;rounded=0;orthogonalLoop=1;jettySize=auto;html=1;entryX=1;entryY=0.5;entryDx=0;entryDy=0;" edge="1" parent="1" source="_x0-wylek2HW_SOhxotY-261" target="zBTAGkf1-Lc7cg8zBFCE-128">
          <mxGeometry relative="1" as="geometry">
            <Array as="points">
              <mxPoint x="1631" y="1725" />
              <mxPoint x="1631" y="1765" />
            </Array>
          </mxGeometry>
        </mxCell>
        <mxCell id="_x0-wylek2HW_SOhxotY-261" value="True" style="rounded=0;whiteSpace=wrap;html=1;shadow=0;fillStyle=solid;fillColor=#60a917;strokeColor=#2D7600;fontColor=#ffffff;movable=1;resizable=1;rotatable=1;deletable=1;editable=1;locked=0;connectable=1;container=0;" vertex="1" parent="1">
          <mxGeometry x="1651" y="1715" width="40" height="19.96" as="geometry" />
        </mxCell>
        <mxCell id="_x0-wylek2HW_SOhxotY-290" style="edgeStyle=orthogonalEdgeStyle;rounded=0;orthogonalLoop=1;jettySize=auto;html=1;" edge="1" parent="1" source="_x0-wylek2HW_SOhxotY-262">
          <mxGeometry relative="1" as="geometry">
            <mxPoint x="2063" y="1724" as="targetPoint" />
          </mxGeometry>
        </mxCell>
        <mxCell id="_x0-wylek2HW_SOhxotY-262" value="False" style="rounded=0;whiteSpace=wrap;html=1;shadow=0;fillStyle=solid;fillColor=#a20025;fontColor=#ffffff;strokeColor=#6F0000;movable=1;resizable=1;rotatable=1;deletable=1;editable=1;locked=0;connectable=1;container=0;" vertex="1" parent="1">
          <mxGeometry x="1831" y="1715" width="40" height="19.96" as="geometry" />
        </mxCell>
        <mxCell id="_x0-wylek2HW_SOhxotY-263" value="" style="endArrow=none;html=1;rounded=0;entryX=0.5;entryY=1;entryDx=0;entryDy=0;exitX=0;exitY=0.5;exitDx=0;exitDy=0;movable=1;resizable=1;rotatable=1;deletable=1;editable=1;locked=0;connectable=1;" edge="1" parent="1" source="_x0-wylek2HW_SOhxotY-262">
          <mxGeometry width="50" height="50" relative="1" as="geometry">
            <mxPoint x="1721" y="1765" as="sourcePoint" />
            <mxPoint x="1796" y="1725" as="targetPoint" />
          </mxGeometry>
        </mxCell>
        <mxCell id="_x0-wylek2HW_SOhxotY-265" value="" style="triangle;whiteSpace=wrap;html=1;rotation=-90;fillColor=#f5f5f5;gradientColor=#b3b3b3;strokeColor=#666666;movable=1;resizable=1;rotatable=1;deletable=1;editable=1;locked=0;connectable=1;container=0;" vertex="1" parent="1">
          <mxGeometry x="1470" y="1851" width="65" height="123.81" as="geometry" />
        </mxCell>
        <mxCell id="_x0-wylek2HW_SOhxotY-266" value="&lt;b style=&quot;line-height: 70%;&quot;&gt;&lt;font style=&quot;font-size: 10px;&quot;&gt;If&amp;nbsp;&lt;/font&gt;&lt;/b&gt;&lt;div style=&quot;line-height: 70%;&quot;&gt;&lt;b&gt;&lt;font style=&quot;font-size: 10px;&quot;&gt;KLEM15&lt;/font&gt;&lt;/b&gt;&lt;/div&gt;&lt;div style=&quot;line-height: 70%;&quot;&gt;&lt;b&gt;&lt;font style=&quot;font-size: 10px;&quot;&gt;KLEM30&lt;/font&gt;&lt;/b&gt;&lt;/div&gt;&lt;div style=&quot;line-height: 70%;&quot;&gt;&lt;b&gt;&lt;font style=&quot;font-size: 10px;&quot;&gt;or&lt;br&gt;&lt;/font&gt;&lt;/b&gt;&lt;div&gt;&lt;b&gt;&lt;font style=&quot;font-size: 10px;&quot;&gt;LIGHT_SENSOR = 0&lt;/font&gt;&lt;/b&gt;&lt;/div&gt;&lt;/div&gt;" style="text;html=1;align=center;verticalAlign=middle;whiteSpace=wrap;rounded=0;movable=1;resizable=1;rotatable=1;deletable=1;editable=1;locked=0;connectable=1;container=0;" vertex="1" parent="1">
          <mxGeometry x="1453.95" y="1901" width="97.1" height="30" as="geometry" />
        </mxCell>
        <mxCell id="_x0-wylek2HW_SOhxotY-273" style="edgeStyle=orthogonalEdgeStyle;rounded=0;orthogonalLoop=1;jettySize=auto;html=1;entryX=0.5;entryY=0;entryDx=0;entryDy=0;" edge="1" parent="1" target="zBTAGkf1-Lc7cg8zBFCE-124">
          <mxGeometry relative="1" as="geometry">
            <mxPoint x="1400" y="1912.909090909091" as="sourcePoint" />
            <Array as="points">
              <mxPoint x="1390" y="1913" />
            </Array>
          </mxGeometry>
        </mxCell>
        <mxCell id="_x0-wylek2HW_SOhxotY-269" value="" style="endArrow=none;html=1;rounded=0;exitX=0.5;exitY=0;exitDx=0;exitDy=0;entryX=1;entryY=0.5;entryDx=0;entryDy=0;movable=1;resizable=1;rotatable=1;deletable=1;editable=1;locked=0;connectable=1;" edge="1" parent="1" source="_x0-wylek2HW_SOhxotY-265">
          <mxGeometry width="50" height="50" relative="1" as="geometry">
            <mxPoint x="1600" y="1964.81" as="sourcePoint" />
            <mxPoint x="1440" y="1912.9100000000003" as="targetPoint" />
          </mxGeometry>
        </mxCell>
        <mxCell id="_x0-wylek2HW_SOhxotY-270" value="" style="endArrow=none;html=1;rounded=0;exitX=0.5;exitY=1;exitDx=0;exitDy=0;entryX=0;entryY=0.5;entryDx=0;entryDy=0;movable=1;resizable=1;rotatable=1;deletable=1;editable=1;locked=0;connectable=1;" edge="1" parent="1" source="_x0-wylek2HW_SOhxotY-265">
          <mxGeometry width="50" height="50" relative="1" as="geometry">
            <mxPoint x="1560" y="1964.81" as="sourcePoint" />
            <mxPoint x="1570" y="1912.9100000000003" as="targetPoint" />
          </mxGeometry>
        </mxCell>
        <mxCell id="_x0-wylek2HW_SOhxotY-292" style="edgeStyle=orthogonalEdgeStyle;rounded=0;orthogonalLoop=1;jettySize=auto;html=1;" edge="1" parent="1" source="_x0-wylek2HW_SOhxotY-275">
          <mxGeometry relative="1" as="geometry">
            <mxPoint x="2065" y="1911.96" as="targetPoint" />
          </mxGeometry>
        </mxCell>
        <mxCell id="_x0-wylek2HW_SOhxotY-275" value="&lt;b&gt;lightState = 0&lt;/b&gt;" style="rounded=0;whiteSpace=wrap;html=1;fillColor=#ffe6cc;strokeColor=#d79b00;movable=1;resizable=1;rotatable=1;deletable=1;editable=1;locked=0;connectable=1;container=0;" vertex="1" parent="1">
          <mxGeometry x="1665" y="1901.96" width="110" height="20" as="geometry" />
        </mxCell>
        <mxCell id="_x0-wylek2HW_SOhxotY-278" style="edgeStyle=orthogonalEdgeStyle;rounded=0;orthogonalLoop=1;jettySize=auto;html=1;entryX=0;entryY=0.5;entryDx=0;entryDy=0;" edge="1" parent="1" source="_x0-wylek2HW_SOhxotY-276" target="_x0-wylek2HW_SOhxotY-275">
          <mxGeometry relative="1" as="geometry" />
        </mxCell>
        <mxCell id="_x0-wylek2HW_SOhxotY-276" value="True" style="rounded=0;whiteSpace=wrap;html=1;shadow=0;fillStyle=solid;fillColor=#60a917;strokeColor=#2D7600;fontColor=#ffffff;movable=1;resizable=1;rotatable=1;deletable=1;editable=1;locked=0;connectable=1;container=0;" vertex="1" parent="1">
          <mxGeometry x="1570" y="1902" width="40" height="19.96" as="geometry" />
        </mxCell>
        <mxCell id="_x0-wylek2HW_SOhxotY-277" value="False" style="rounded=0;whiteSpace=wrap;html=1;shadow=0;fillStyle=solid;fillColor=#a20025;fontColor=#ffffff;strokeColor=#6F0000;movable=1;resizable=1;rotatable=1;deletable=1;editable=1;locked=0;connectable=1;container=0;" vertex="1" parent="1">
          <mxGeometry x="1400" y="1903" width="40" height="19.96" as="geometry" />
        </mxCell>
        <mxCell id="_x0-wylek2HW_SOhxotY-291" style="edgeStyle=orthogonalEdgeStyle;rounded=0;orthogonalLoop=1;jettySize=auto;html=1;" edge="1" parent="1" source="_x0-wylek2HW_SOhxotY-280">
          <mxGeometry relative="1" as="geometry">
            <mxPoint x="2064" y="1826.9300000000003" as="targetPoint" />
          </mxGeometry>
        </mxCell>
        <mxCell id="_x0-wylek2HW_SOhxotY-280" value="&lt;b&gt;lightState = 1&lt;/b&gt;" style="rounded=0;whiteSpace=wrap;html=1;fillColor=#ffe6cc;strokeColor=#d79b00;movable=1;resizable=1;rotatable=1;deletable=1;editable=1;locked=0;connectable=1;container=0;" vertex="1" parent="1">
          <mxGeometry x="1822" y="1816.93" width="110" height="20" as="geometry" />
        </mxCell>
        <mxCell id="_x0-wylek2HW_SOhxotY-286" style="edgeStyle=orthogonalEdgeStyle;rounded=0;orthogonalLoop=1;jettySize=auto;html=1;entryX=1;entryY=0.5;entryDx=0;entryDy=0;" edge="1" parent="1" source="_x0-wylek2HW_SOhxotY-283" target="zBTAGkf1-Lc7cg8zBFCE-117">
          <mxGeometry relative="1" as="geometry" />
        </mxCell>
        <mxCell id="_x0-wylek2HW_SOhxotY-283" value="&lt;b&gt;Delay 0.1&lt;/b&gt;" style="rounded=0;whiteSpace=wrap;html=1;fillColor=#fff2cc;gradientColor=#ffd966;strokeColor=#d6b656;movable=1;resizable=1;rotatable=1;deletable=1;editable=1;locked=0;connectable=1;container=0;" vertex="1" parent="1">
          <mxGeometry x="1848" y="1392" width="110" height="20" as="geometry" />
        </mxCell>
        <mxCell id="_x0-wylek2HW_SOhxotY-293" style="edgeStyle=orthogonalEdgeStyle;rounded=0;orthogonalLoop=1;jettySize=auto;html=1;entryX=1;entryY=0.5;entryDx=0;entryDy=0;" edge="1" parent="1" source="_x0-wylek2HW_SOhxotY-287" target="_x0-wylek2HW_SOhxotY-294">
          <mxGeometry relative="1" as="geometry">
            <mxPoint x="1072.2" y="350" as="targetPoint" />
            <Array as="points">
              <mxPoint x="2068" y="2110" />
              <mxPoint x="2154" y="2110" />
              <mxPoint x="2154" y="319" />
            </Array>
          </mxGeometry>
        </mxCell>
        <mxCell id="_x0-wylek2HW_SOhxotY-287" value="&lt;b&gt;Delay 0.1&lt;/b&gt;" style="rounded=0;whiteSpace=wrap;html=1;fillColor=#fff2cc;gradientColor=#ffd966;strokeColor=#d6b656;movable=1;resizable=1;rotatable=1;deletable=1;editable=1;locked=0;connectable=1;container=0;" vertex="1" parent="1">
          <mxGeometry x="2013" y="2005" width="110" height="20" as="geometry" />
        </mxCell>
        <mxCell id="_x0-wylek2HW_SOhxotY-295" style="edgeStyle=orthogonalEdgeStyle;rounded=0;orthogonalLoop=1;jettySize=auto;html=1;entryX=1;entryY=0.5;entryDx=0;entryDy=0;" edge="1" parent="1" source="_x0-wylek2HW_SOhxotY-294" target="_x0-wylek2HW_SOhxotY-172">
          <mxGeometry relative="1" as="geometry" />
        </mxCell>
        <mxCell id="_x0-wylek2HW_SOhxotY-294" value="&lt;b&gt;LOOP&lt;/b&gt;" style="rounded=0;whiteSpace=wrap;html=1;fillColor=#ffe6cc;strokeColor=#d79b00;movable=1;resizable=1;rotatable=1;deletable=1;editable=1;locked=0;connectable=1;container=0;" vertex="1" parent="1">
          <mxGeometry x="995" y="308.9999999999999" width="110" height="20" as="geometry" />
        </mxCell>
      </root>
    </mxGraphModel>
  </diagram>
</mxfile>
